<svg width="256" height="256" viewBox="0 0 256 256" fill="none" xmlns="http://www.w3.org/2000/svg">
<path fill-rule="evenodd" clip-rule="evenodd" d="M74.8473 10.4565L75.4886 10.5697L75.5849 23.4865H74.9413C74.5874 23.4865 74.2977 23.569 74.2977 23.6697C74.2977 23.7875 76.1604 23.8529 79.5191 23.8529H84.7404V21.746C84.7404 20.4634 84.6688 19.639 84.5572 19.639C84.4564 19.639 84.374 19.922 84.374 20.268C84.374 21.0309 84.3421 21.0424 81.8091 21.1928C80.7511 21.2557 79.6588 21.3506 79.3817 21.4037L78.8778 21.5003V18.1293L83.0916 18.3925V15.5791L81.8549 15.693C81.1749 15.7557 80.2266 15.8524 79.7481 15.9079L78.8778 16.0091V12.6265L80.6641 12.7467C81.6464 12.8129 82.8831 12.9162 83.4122 12.9763C84.3615 13.084 84.374 13.0934 84.374 13.7055C84.374 14.0466 84.4564 14.3257 84.5572 14.3257C84.6682 14.3257 84.7404 13.5318 84.7404 12.3103V10.2949L79.4733 10.3191C76.5764 10.3323 74.4947 10.3942 74.8473 10.4565ZM88.3583 10.674C87.9802 10.8737 87.4498 11.371 87.1796 11.7792C86.5303 12.7603 86.3528 15.1634 86.8359 16.4285C87.4991 18.1652 89.0228 18.8935 91.288 18.5565C93.6678 18.2025 93.5343 18.1276 93.5343 19.8152V21.2742L92.3892 21.1734C91.7595 21.1179 90.3785 21.018 89.3205 20.9512L87.3969 20.8299L87.3395 20.2344C87.3078 19.907 87.2049 19.639 87.1105 19.639C87.0138 19.639 86.9389 20.5585 86.9389 21.746V23.8529L90.374 23.8518C92.3141 23.8513 94.128 23.7628 94.5419 23.6485C95.6519 23.3418 96.57 22.2747 96.8391 20.9786C97.3103 18.709 96.6733 16.693 95.215 15.8383C94.46 15.3959 94.3263 15.3779 92.6481 15.4928C91.6745 15.5595 90.6512 15.6635 90.374 15.724L89.8701 15.8341V12.8101L92.0228 12.931C93.2067 12.9975 94.6082 13.1007 95.1373 13.1602C96.0502 13.263 96.0991 13.2955 96.0991 13.7971C96.0991 14.0879 96.1816 14.3257 96.2823 14.3257C96.3933 14.3257 96.4655 13.5318 96.4655 12.3103V10.2949L92.7556 10.303C89.4206 10.3103 88.9763 10.3479 88.3583 10.674ZM98.3284 12.3561C98.3454 13.4899 98.391 14.1179 98.4297 13.752C98.5079 13.0157 98.4687 13.0309 101.003 12.7541L102.151 12.6287L102.053 23.3949L101.458 23.4523C101.13 23.4839 100.862 23.5869 100.862 23.6813C100.862 23.7806 102.059 23.8529 103.702 23.8529C105.473 23.8529 106.542 23.7841 106.542 23.6697C106.542 23.569 106.294 23.4865 105.992 23.4865H105.443V12.6295L106.588 12.752C108.89 12.9986 108.923 13.0124 108.923 13.7048C108.923 14.0463 109.006 14.3257 109.107 14.3257C109.218 14.3257 109.29 13.5318 109.29 12.3103V10.2949H98.2976L98.3284 12.3561ZM110.664 10.4584L111.397 10.5697V23.3949L110.71 23.4517C110.332 23.483 110.023 23.5911 110.023 23.6921C110.023 23.8112 111.681 23.8555 114.754 23.8183L119.486 23.7613L120.247 23.2573C121.646 22.3302 121.748 21.9125 121.748 17.0754C121.748 12.4735 121.678 12.0758 120.717 11.1769C119.828 10.346 119.448 10.2933 114.545 10.3209C112.007 10.3352 110.261 10.397 110.664 10.4584ZM137.687 12.3103C137.687 13.5318 137.759 14.3257 137.87 14.3257C137.971 14.3257 138.053 14.089 138.053 13.7997C138.053 13.2007 138.182 13.1692 141.58 12.9336L143.366 12.8098V14.3202C143.366 15.6852 143.335 15.8184 143.045 15.7029C142.869 15.6328 142.106 15.5358 141.351 15.4876C139.731 15.3843 139.046 15.6595 138.158 16.7698L137.595 17.4732L137.48 23.8529H146.847V20.868L144.511 20.9946C143.226 21.0644 141.866 21.1694 141.488 21.228L140.801 21.3348V19.8456C140.801 18.1542 140.732 18.2077 142.472 18.5573C143.688 18.8015 144.733 18.5697 145.563 17.8718C146.526 17.0617 146.743 16.4451 146.749 14.5089C146.757 12.3746 146.374 11.4864 145.137 10.7608C144.364 10.3081 144.248 10.2949 141.014 10.2949H137.687V12.3103ZM150.465 10.674C150.087 10.8737 149.551 11.379 149.274 11.7971L148.771 12.5571L148.712 16.5355C148.645 21.1161 148.755 21.7734 149.757 22.7753C150.659 23.6772 151.595 23.9081 153.99 23.8181C156.276 23.7324 157.089 23.4151 157.81 22.3268C158.296 21.5921 158.297 21.5836 158.354 17.4543C158.385 15.1793 158.36 13.0483 158.299 12.7187C158.16 11.9721 157.213 10.8704 156.428 10.5424C156.031 10.3766 155.063 10.2977 153.494 10.303C151.524 10.3098 151.043 10.3686 150.465 10.674ZM162.099 11.3002C160.965 11.8416 160.038 12.3744 160.038 12.4838C160.038 12.5934 160.447 12.4754 160.948 12.2218C161.448 11.9682 161.943 11.7607 162.047 11.7607C162.173 11.7607 162.236 13.7114 162.236 17.6236V23.4865H161.32C160.816 23.4865 160.404 23.569 160.404 23.6697C160.404 23.7855 161.687 23.8529 163.885 23.8529C166.083 23.8529 167.366 23.7855 167.366 23.6697C167.366 23.569 166.954 23.4865 166.45 23.4865H165.534V10.2949L164.847 10.3052C164.41 10.3118 163.409 10.6744 162.099 11.3002ZM169.748 12.3103C169.748 13.5318 169.82 14.3257 169.931 14.3257C170.032 14.3257 170.114 14.0877 170.114 13.7969C170.114 13.1863 170.265 13.1483 173.549 12.9349L175.427 12.8127V14.3235C175.427 15.8033 175.418 15.8317 175.015 15.7147C174.788 15.6489 174.011 15.5454 173.288 15.4847C172.101 15.3849 171.896 15.4193 171.179 15.8396C170.7 16.1205 170.204 16.621 169.929 17.1018C169.503 17.8449 169.469 18.0985 169.411 20.8757L169.35 23.8529H178.725V20.8718L176.389 20.997C175.104 21.0657 173.785 21.1685 173.457 21.2253L172.862 21.3288V18.3149L173.732 18.4706C175.868 18.8526 177.288 18.4222 178.178 17.1234C178.596 16.5135 178.633 16.2925 178.633 14.4019C178.633 12.3801 178.623 12.3321 178.07 11.6403C177.081 10.4016 176.681 10.2955 172.999 10.2953L169.748 10.2949V12.3103ZM114.786 21.4711H118.45V12.6767H114.786V21.4711ZM152.068 21.3795L155.091 21.486V12.6767H151.97L152.068 21.3795ZM132.845 44.3215C131.554 48.3303 130.457 51.9237 130.408 52.3069C130.334 52.8805 130.438 53.1978 130.998 54.1048C131.822 55.4408 131.86 56.1154 131.182 57.429C130.005 59.7103 126.79 64.0952 124.389 66.693L123.488 67.6679L120.923 65.5679C114.134 60.0096 111.833 56.1568 112.788 51.9448L112.989 51.0606L110.286 44.7396C108.8 41.2631 107.524 38.3503 107.452 38.267C107.379 38.1834 106.918 38.3163 106.427 38.5619C105.936 38.8078 103.885 39.6874 101.87 40.5165C99.8548 41.3457 97.2991 42.398 96.1907 42.8547C93.5531 43.9419 90.2366 45.6304 88.4578 46.7917C86.8872 47.8171 84.7816 49.8175 84.309 50.7334C84.0085 51.3153 84.0147 51.344 84.8384 53.2068C87.4621 59.1392 91.7625 65.5833 97.8335 72.6802C99.7332 74.9008 101.178 76.4966 107.131 82.9469L108.177 84.0812L106.702 85.9843C95.4161 100.542 89.4554 113.555 88.0385 126.729C87.7814 129.12 87.7807 135.008 88.0374 137.532C88.8825 145.84 91.722 154.398 96.2351 162.236C96.6876 163.022 97.0276 163.695 96.9906 163.732C96.9538 163.768 96.264 163.934 95.4579 164.1C87.6975 165.701 80.4825 165.325 73.6565 162.964C67.1073 160.699 61.2079 156.38 57.1043 150.845C51.1519 142.816 48.2185 132.256 46.9197 114.179C46.7642 112.012 46.4701 107.684 46.2668 104.56C45.4854 92.5669 44.5121 85.7785 42.6085 79.0424C41.4406 74.9095 39.7553 70.5314 39.259 70.341C38.5865 70.0829 36.5005 70.0125 35.1248 70.2014C32.053 70.6236 28.667 71.826 21.8265 74.9237C19.7011 75.8861 17.0432 77.0565 15.92 77.5246L13.8776 78.3755L16.7682 85.1373C18.7325 89.7327 19.8056 92.0255 20.1177 92.2939C20.3702 92.5112 20.9248 92.7446 21.35 92.8126C22.3032 92.965 23.0829 93.6971 23.3418 94.683C24.2862 98.2799 24.4821 104.588 23.9187 113.263C23.1161 125.619 23.66 135.728 25.659 145.6C28.8678 161.449 35.882 173.036 47.2171 181.213C59.5206 190.088 79.5115 194.946 94.4433 192.69C99.4629 191.931 101.625 191.031 108.002 187.043C111.601 184.792 113.679 183.701 113.967 183.91C114.093 184.001 115.192 184.834 116.408 185.761C119.135 187.839 122.558 189.887 124.862 190.818C127.041 191.7 129.205 192.215 134.206 193.045C143.093 194.519 145.993 195.452 150.189 198.185C153.095 200.078 154.223 200.629 156.69 201.361C160.305 202.435 162.748 202.748 167.549 202.753C173.714 202.76 177.742 202.219 184.496 200.477C190.029 199.049 194.453 197.423 199.78 194.86C215.294 187.396 224.097 178.899 229.563 166.114C234.966 153.479 236.679 137.802 234.68 119.309C234.301 115.808 233.421 109.838 232.763 106.3C231.763 100.931 231.478 98.8739 231.368 96.2235C231.156 91.1257 232.215 88.1334 234.973 86.0367L235.982 85.2701L238.246 78.1506C239.491 74.2349 240.521 70.9579 240.533 70.8683C240.546 70.7788 239.649 70.4323 238.541 70.0985C237.433 69.7646 234.127 68.6696 231.195 67.6646C228.263 66.6599 224.512 65.4875 222.859 65.0591C219.894 64.2907 219.812 64.2804 216.648 64.2709C212.488 64.2586 212.129 64.3768 211.655 65.9175C210.292 70.3438 209.206 75.7503 208.686 80.7025C208.01 87.1424 207.995 92.4382 208.599 112.072C209.02 125.724 208.181 135.789 205.995 143.31C202.322 155.952 192.762 166.443 181.564 170.12C177.647 171.407 173.952 171.934 168.903 171.927C163.79 171.919 159.225 171.436 153.738 170.32C152.54 170.076 151.489 169.877 151.402 169.877C151.035 169.877 151.297 170.357 152.065 171.092C152.744 171.744 153.194 171.974 154.675 172.432C156.656 173.044 160.209 173.783 162.598 174.08C164.788 174.353 170.217 174.314 172.496 174.009C184.963 172.342 196.419 165.359 202.809 155.533C205.698 151.09 208.049 144.257 209.315 136.623C210.633 128.678 210.936 122.062 210.584 108.957C210.305 98.6136 210.279 84.1955 210.534 82.3175L210.694 81.1451L211.289 81.6464C212.272 82.4749 212.409 83.3465 212.415 88.8391C212.425 96.6903 212.874 103.023 213.746 107.58C214.222 110.071 214.35 110.284 214.621 109.033C214.912 107.689 214.883 103.83 214.558 100.712C214.411 99.3015 214.236 97.4052 214.17 96.4983C214.017 94.3999 213.578 82.4141 213.65 82.3201C213.82 82.101 214.7 82.989 215.129 83.8139C215.627 84.7701 215.629 84.7851 215.753 89.9025C215.822 92.7241 215.968 95.6922 216.078 96.4983C216.532 99.8461 216.894 101.73 217.053 101.572C217.373 101.251 217.433 97.9937 217.185 94.4271C216.842 89.502 216.865 86.7551 217.265 85.0015C217.622 83.4364 217.781 83.3199 218.684 83.9625C219.872 84.8084 220.06 85.9683 219.558 89.3529C219.242 91.4811 219.213 92.0775 219.386 92.8551C219.576 93.7109 220.343 94.7878 220.588 94.543C220.64 94.4914 220.76 92.4368 220.856 89.9773C220.952 87.5178 221.084 85.3217 221.15 85.0975C221.333 84.4689 221.843 84.8621 222.45 86.0997L222.967 87.1543L223.006 92.6753C223.028 95.712 223.125 98.6878 223.221 99.2882C223.455 100.742 223.766 101.865 223.968 101.99C224.255 102.167 224.393 100.13 224.275 97.445C224.013 91.4577 223.935 87.6022 224.057 86.6319C224.173 85.7019 224.22 85.6162 224.523 85.7783C225.063 86.0676 225.631 87.1493 225.744 88.1048C225.802 88.5911 225.711 90.0707 225.542 91.3928C225.084 94.9784 225.387 97.2581 227.641 107.216C229.693 116.282 230.152 119.674 229.826 123.347C229.45 127.583 229.38 129.105 229.496 130.532C229.615 131.995 230.157 133.734 230.727 134.483C231.04 134.894 231.059 134.703 231.274 128.803C231.569 120.676 231.418 119.058 229.397 108.74C227.811 100.645 227.588 98.9177 227.573 94.5746C227.563 91.7006 227.638 90.3884 227.892 88.9864C228.075 87.9788 228.296 87.0786 228.384 86.9861C228.624 86.7345 229.984 87.1988 230.202 87.6068C230.476 88.1184 230.434 88.5801 229.996 89.8448C229.632 90.8959 229.611 91.2232 229.709 94.2886C229.83 98.0608 230.169 100.785 231.581 109.323C233.434 120.535 233.757 124.046 233.767 133.05C233.775 140.758 233.417 145.003 232.293 150.547C229.955 162.084 225.076 171.707 217.036 180.638C209.561 188.942 197.63 195.385 183.712 198.636C177.862 200.002 169.23 200.969 164.801 200.754C159.406 200.492 155.968 199.54 151.244 197.003C146.195 194.291 144.53 193.512 142.018 192.687C138.936 191.675 138.116 191.535 134.114 191.34C130.954 191.186 130.724 191.149 128.601 190.438C122.793 188.493 117.843 185.208 112.117 179.498C106.425 173.824 102.266 168.102 97.9119 159.958C91.807 148.539 89.4316 139.977 89.7414 130.506C90.1437 118.208 95.3762 104.714 104.998 91.1618C107.578 87.5275 116.622 76.2917 118.804 74.0087C119.84 72.9255 122.351 70.5572 124.384 68.746C129.2 64.4554 132.118 61.0928 132.565 59.3182C132.947 57.8021 133.3 57.0694 133.746 56.8662C134.716 56.4243 135.855 57.3589 135.855 58.5972C135.855 59.4856 135.118 60.6575 133.406 62.4911C132.486 63.4776 130.751 65.3902 129.552 66.7418C128.353 68.0933 125.291 71.3839 122.748 74.0543C116.003 81.1363 112.607 85.0253 109.604 89.1032C108.086 91.1642 105.798 94.6249 105.892 94.7186C105.937 94.7633 106.369 94.6116 106.853 94.3818C108.112 93.784 110.458 91.3226 111.656 89.3432C115.227 83.4456 117.074 81.3012 124.05 74.9513C129.374 70.1049 133.273 66.1771 134.341 64.584C134.733 63.9985 135.367 62.9422 135.748 62.2368C136.13 61.5314 136.732 60.5985 137.086 60.1635C137.758 59.3391 139.082 58.3495 139.266 58.5338C139.47 58.7376 138.758 60.484 137.867 61.9662C136.884 63.602 135.74 65.0818 133.196 68.0081C131.113 70.4043 129.954 71.8784 130.065 71.9898C130.338 72.2624 131.646 71.488 132.728 70.4138C133.846 69.3037 134.777 68.0847 137.925 63.6109C139.678 61.1198 141.84 59.0802 142.271 59.5111C142.479 59.7196 142.176 61.0666 141.726 61.9325C141.534 62.3013 140.673 63.5492 139.813 64.7055C138.127 66.9722 137.543 67.9261 137.728 68.1107C137.984 68.3662 139.161 67.7645 139.834 67.0351C140.224 66.6111 140.994 65.4122 141.543 64.3709C143.067 61.4814 144.055 60.4963 145.429 60.4963C146.229 60.4963 146.71 60.8616 146.71 61.4697C146.71 62.0285 146.354 62.6234 145.383 63.6868C145.007 64.0985 144.175 65.1775 143.534 66.0844C142.892 66.9913 141.047 69.3821 139.432 71.3971C137.817 73.4121 136.331 75.2672 136.13 75.5195L135.764 75.9781L136.313 75.6333C139.257 73.7853 142.534 70.3081 144.894 66.5281C146.266 64.3314 147.303 63.0793 148.22 62.5124C148.883 62.1025 149.961 61.73 149.961 61.9111C149.961 62.099 148.286 64.9398 147.338 66.3592C145.931 68.4649 143.769 71.2135 140.285 75.3245C136.744 79.503 134.167 82.6895 133.585 83.6087L133.198 84.2188L134.375 83.3963C137.754 81.0348 142.834 75.21 147.946 67.8368C150.184 64.6098 150.782 63.9034 151.798 63.2903C152.341 62.9627 152.84 62.6949 152.908 62.6949C152.976 62.6949 153.135 62.9453 153.262 63.2515C153.689 64.2815 153.661 64.3248 146.196 74.306C144.679 76.3341 142.12 79.6836 140.509 81.7494C126.339 99.9157 120.392 110.307 118.076 120.946C117.178 125.069 116.878 130.871 117.355 134.882C118.259 142.475 121.545 150.128 126.366 155.867C131.802 162.338 139.299 167.084 147.932 169.521C150.212 170.164 150.406 170.182 150.162 169.726C149.594 168.663 148.156 167.86 146.023 167.412C145.72 167.348 145.042 167.174 144.515 167.025L143.557 166.754L145.08 164.697C147.014 162.085 148.125 160.417 149.656 157.829C154.205 150.139 158.026 139.852 159.235 132.042C159.712 128.96 159.717 121.94 159.245 118.942C157.722 109.28 153.376 99.8382 145.853 89.8488C144.813 88.4676 143.337 86.6239 142.573 85.7516L141.184 84.1656L144.794 79.3366C152.391 69.1745 156.357 62.7403 159.398 55.641C160.352 53.4137 161.87 49.2532 161.87 48.8648C161.87 48.4687 160.083 46.6227 158.843 45.7378C156.36 43.9661 151.399 41.9445 145.106 40.1404C142.94 39.5191 136.183 37.4124 135.428 37.123C135.262 37.059 134.515 39.1393 132.845 44.3215ZM136.618 40.2534C135.718 41.0106 135.008 42.7321 134.032 46.5247C133.533 48.4637 132.963 50.4173 132.764 50.8659L132.403 51.6815L133.808 52.1403C139.57 54.021 149.732 57.2537 149.934 57.27C150.102 57.2836 150.811 55.3263 152.15 51.1522C153.232 47.7765 154.103 44.9934 154.084 44.9677C153.999 44.8474 145.478 42.173 145.333 42.2211C145.243 42.2512 145.006 42.7569 144.808 43.3448C144.347 44.709 143.996 45.2385 143.316 45.5899C142.826 45.8435 142.743 45.8435 142.489 45.5903C142.236 45.3371 142.249 45.2019 142.621 44.2455C143.431 42.1612 143.494 41.8049 143.099 41.5161C142.567 41.1275 142.111 41.2032 141.539 41.7748C141.118 42.1959 140.928 42.7067 140.508 44.5399C140.224 45.7768 139.888 46.9254 139.761 47.0925C139.31 47.6861 139.495 45.8576 140.068 44.0693C140.846 41.6405 140.806 40.9102 139.867 40.4245C139.353 40.1589 139.338 40.1653 139.095 40.7519C138.958 41.081 138.663 42.0509 138.439 42.9075C137.713 45.6786 137.327 46.6801 136.784 47.2006L136.257 47.7046L136.138 47.1618C135.985 46.4657 136.102 46.0132 137.083 43.4914C138.262 40.4628 138.057 39.0418 136.618 40.2534ZM105.844 40.6873C105.737 40.7536 105.566 41.026 105.465 41.2924C105.203 41.9793 105.474 42.8162 106.745 45.2477C107.876 47.4124 108.011 47.8543 107.537 47.8543C106.659 47.8543 106.088 47.0286 105.258 44.5595C104.197 41.4033 103.785 40.9509 103.13 42.2191C102.748 42.9568 102.902 43.6752 103.92 45.8941C104.374 46.8853 104.697 47.7451 104.637 47.8047C104.404 48.0383 103.81 47.2252 103.426 46.1473C102.539 43.6506 102.256 43.0522 101.836 42.7767C101.488 42.5486 101.304 42.5315 100.947 42.6944C100.297 42.9905 100.362 43.7605 101.166 45.2959C101.535 45.9994 101.785 46.6259 101.723 46.688C101.661 46.7501 101.396 46.8008 101.133 46.8008C100.471 46.8008 99.6819 45.9853 99.2044 44.8085C98.9846 44.2668 98.7045 43.8236 98.5821 43.8236C98.4597 43.8236 96.6762 44.5561 94.6186 45.4513C92.0877 46.5526 90.8972 47.1599 90.9377 47.3292C91.026 47.6975 95.3903 57.8173 95.5259 57.9679C95.6127 58.0644 104.44 54.3631 110.898 51.5225L111.314 51.3391L110.94 50.605C110.734 50.2011 110.027 48.4895 109.368 46.8014C108.709 45.1132 107.917 43.2785 107.606 42.7243C106.893 41.4505 106.097 40.5308 105.844 40.6873ZM155.456 46.984C155.035 47.6742 154.138 50.3342 153.091 54.002C152.687 55.4182 152.237 56.8589 152.092 57.2035L151.829 57.8301L152.741 58.4444C153.242 58.7823 153.91 59.4233 154.224 59.8691C154.538 60.3149 154.853 60.6795 154.924 60.6795C155.155 60.6795 156.178 59.4065 156.578 58.622C157.204 57.3957 157.605 56.0749 158.206 53.2592C158.515 51.808 158.929 50.1533 159.126 49.5822C159.471 48.5797 159.468 48.2208 159.116 48.2208C158.844 48.2208 158.465 49.1105 157.928 51.0148C157.65 51.9974 157.352 52.8012 157.265 52.8012C156.915 52.8012 157.142 51.4133 157.748 49.8444C158.437 48.0601 158.55 47.3047 158.127 47.3047C157.917 47.3047 157.106 48.9978 157.106 49.4358C157.106 49.869 156.303 52.0461 156.173 51.9657C155.852 51.7673 156.01 50.8582 156.671 49.1057C157.292 47.461 157.374 46.755 156.942 46.755C156.746 46.755 156.156 48.2418 155.698 49.8884C155.533 50.4827 155.329 50.969 155.244 50.969C154.917 50.969 155.116 49.6323 155.641 48.3124C155.943 47.5513 156.19 46.8072 156.19 46.6587C156.19 46.2019 155.837 46.3584 155.456 46.984ZM89.0362 48.7065C89.108 48.9936 89.5026 49.9511 89.9128 50.8343C90.6466 52.4144 90.7125 53.1097 90.0512 52.2937C89.8657 52.065 89.575 51.4467 89.405 50.9195C89.0536 49.8303 88.6628 49.1368 88.4003 49.1368C88.0385 49.1368 88.2415 49.9278 89.0637 51.7215C89.527 52.7323 89.8636 53.6016 89.8117 53.6535C89.6208 53.8444 88.9937 53.0077 88.6764 52.1387C87.9886 50.2545 87.69 49.6865 87.3874 49.6865C87.0076 49.6865 87.1213 50.2477 87.7954 51.7019C88.931 54.1513 89.1223 54.6333 88.9589 54.6333C88.578 54.6333 88.0762 53.8275 87.5936 52.4415C87.0585 50.904 86.6619 50.3395 86.4695 50.8411C86.4103 50.995 86.7804 52.1584 87.2917 53.4265C87.8232 54.7445 88.2229 56.0265 88.2253 56.4193C88.2305 57.2999 88.7161 58.3548 89.5961 59.397C89.9788 59.8504 90.4483 60.5719 90.6392 61.0001C90.8303 61.4283 91.0509 61.7788 91.1293 61.7788C91.2079 61.7788 91.637 61.2751 92.0827 60.6595C92.5283 60.0441 93.1197 59.3788 93.3968 59.1813C93.674 58.984 93.8992 58.7249 93.8974 58.6058C93.8955 58.4867 92.9172 56.122 91.7231 53.3508C90.1801 49.77 89.4585 48.2939 89.2286 48.2484C88.9576 48.1949 88.9265 48.2691 89.0362 48.7065ZM154.124 53.0067C153.499 54.5027 153.017 56.4798 153.226 56.6888C153.476 56.9387 153.757 56.3305 154.371 54.2145C154.671 53.1802 154.73 52.733 154.584 52.5874C154.439 52.4417 154.312 52.5569 154.124 53.0067ZM132.74 53.19C132.74 53.6242 134.792 55.3442 136.148 56.0467C137.687 56.844 141.269 58.0261 145.473 59.1243C148.752 59.9809 150.714 60.5708 152.13 61.1258C153.4 61.6236 153.444 61.4459 152.312 60.3781C150.427 58.5985 147.71 57.4622 140.984 55.641C137.824 54.7854 134.548 53.7726 133.533 53.3373C133.072 53.1398 132.74 53.078 132.74 53.19ZM108.923 53.7911C102.138 55.9148 96.6425 58.5694 93.1678 61.4014L92.7098 61.7746L93.7175 61.4844C97.5093 60.3924 102.501 58.4761 105.717 56.8783C108.688 55.4023 111.979 53.142 111.105 53.1782C110.963 53.1841 109.981 53.4598 108.923 53.7911ZM155.01 54.3127C154.43 55.8431 154.04 57.3455 154.168 57.5536C154.378 57.8937 154.64 57.4404 155.165 55.8294C155.658 54.3162 155.763 53.534 155.473 53.534C155.38 53.534 155.172 53.8845 155.01 54.3127ZM90.9694 54.4347C90.9694 54.9541 92.2531 57.7094 92.5477 57.8224C92.7107 57.8849 92.8014 57.7913 92.8014 57.5606C92.8014 57.2013 91.7896 54.7442 91.4638 54.3127C91.209 53.975 90.9694 54.0342 90.9694 54.4347ZM156.183 54.831C155.882 55.392 155.097 57.9358 155.094 58.3587C155.092 58.5437 155.194 58.663 155.32 58.6242C155.664 58.5183 156.833 54.8362 156.597 54.6007C156.466 54.4695 156.338 54.541 156.183 54.831ZM90.1362 55.5036C90.3086 56.2123 91.3785 58.5452 91.6053 58.7072C91.8814 58.9043 92.0686 58.8764 92.0686 58.6381C92.0686 58.2973 90.7406 55.2865 90.5257 55.1399C90.1459 54.8812 90.0145 55.0038 90.1362 55.5036ZM89.3695 56.5076C89.4977 57.2907 90.6292 59.6317 90.9236 59.7229C91.3052 59.8413 91.1852 59.2616 90.4954 57.6559C89.795 56.0252 89.1894 55.4078 89.3695 56.5076ZM109.244 56.3871C108.967 56.5375 108.74 56.7271 108.74 56.8085C108.74 57.1735 110.69 60.1469 111.93 61.6731C113.824 64.0043 116.267 66.2969 120.309 69.5375L121.161 70.2201L121.729 69.5303C122.042 69.151 122.297 68.7934 122.297 68.7353C122.297 68.6774 121.494 67.9763 120.511 67.1771C119.529 66.3779 117.193 64.1974 115.32 62.3315C112.164 59.1863 111.886 58.8557 111.511 57.7986C110.944 56.2041 110.31 55.8089 109.244 56.3871ZM105.078 58.4351C105.083 58.8534 107.399 61.5514 110.307 64.527C113.202 67.49 115.11 69.7606 114.89 69.9812C114.452 70.4191 110.117 66.2857 107.249 62.6949C106.15 61.3189 105.128 60.3466 104.397 59.9807C103.603 59.5835 102.511 59.3354 102.511 59.5521C102.511 59.8473 104.309 62.2923 105.968 64.2522C108.156 66.8379 108.195 66.9088 107.415 66.9088C106.407 66.9088 105.562 66.1512 104.095 63.929C102.544 61.5802 101.961 60.9708 101.023 60.7176C100.186 60.4919 99.3968 60.632 99.3968 61.0067C99.3968 61.3999 100.405 63.1663 101.197 64.1606C101.558 64.6141 103.305 66.4691 105.078 68.283C107.932 71.2018 110.031 73.741 109.789 73.9823C109.472 74.2996 103.106 68.3636 101.342 66.1058C100.048 64.449 98.8107 63.2414 97.9554 62.7989C97.3337 62.4776 95.7327 62.1987 95.7327 62.412C95.7327 62.541 98.3465 65.3632 102.695 69.9286C103.853 71.1454 106.112 73.4165 107.714 74.9755C109.316 76.5347 110.933 78.1948 111.307 78.6648L111.987 79.5195L113.661 77.7166C114.582 76.7252 115.336 75.8705 115.336 75.8172C115.336 75.7641 114.181 74.2533 112.77 72.4598C111.01 70.2221 110.292 69.1804 110.483 69.1393C111.047 69.0179 112.655 69.7234 113.66 70.5334C114.229 70.9924 115.272 71.9783 115.977 72.7245L117.259 74.081L120.133 71.1721L117.597 69.2855C112.737 65.6707 110.844 63.8843 109.202 61.3662C108.044 59.5904 107.001 58.5818 106.144 58.4105C105.395 58.2608 105.076 58.2682 105.078 58.4351ZM93.1678 63.6236C93.1678 64.2231 98.2661 70.3639 103.336 75.8709C105.049 77.7316 107.11 79.9792 107.916 80.8656L109.381 82.4771L110.339 81.4262C110.865 80.8482 111.294 80.334 111.291 80.2837C111.288 80.2333 110.653 79.6974 109.88 79.0928C108.054 77.6644 103.093 72.7062 99.8902 69.1074C98.5 67.5455 96.8792 65.7262 96.2882 65.0644C95.518 64.2018 95.0091 63.8 94.4902 63.6445C93.5927 63.3757 93.1678 63.3689 93.1678 63.6236ZM215.219 66.7714C215.023 67.3006 214.816 67.8982 214.76 68.0998C214.029 70.6958 213.854 71.1628 213.703 70.9235C213.414 70.4667 213.519 69.8792 214.175 68.2954C214.879 66.5935 214.952 66.176 214.546 66.176C214.193 66.176 213.896 66.789 213.169 69.0158C212.575 70.8374 211.935 72.2221 211.688 72.2221C211.374 72.2221 210.93 73.9123 210.793 75.6221C210.711 76.6446 210.552 77.653 210.44 77.8628C210.328 78.0726 210.236 78.2908 210.236 78.3478C210.236 78.5262 211.009 78.4619 212.434 78.1646C213.189 78.007 214.071 77.9275 214.393 77.9879C214.933 78.0893 214.992 78.0512 215.149 77.496C215.242 77.1649 216.08 74.5222 217.01 71.6234C218.548 66.8255 218.83 65.5716 218.295 65.9021C218.025 66.0692 217.662 67.0083 217.096 69.0003C216.824 69.9618 216.529 70.7042 216.441 70.6499C216.133 70.4596 216.287 69.4874 216.848 68.0878C217.276 67.019 217.372 66.5796 217.24 66.2876C217.074 65.9164 217.053 65.9244 216.707 66.4906C216.51 66.8149 216.113 67.9072 215.825 68.9182C215.337 70.6344 215.028 71.1893 214.978 70.4358C214.937 69.805 215.044 69.3705 215.568 68.0527C215.86 67.3176 216.098 66.5122 216.098 66.2628C216.098 65.4664 215.594 65.7579 215.219 66.7714ZM220.535 66.5201C220.139 67.5464 216.677 78.5416 216.732 78.5966C216.817 78.6811 234.31 84.3084 234.334 84.2589C234.343 84.2391 234.69 83.1922 235.104 81.9326C235.518 80.673 236.244 78.5294 236.716 77.169C237.374 75.2767 237.599 74.3403 237.672 73.184C237.768 71.6734 237.768 71.6725 237.316 71.6725C236.405 71.6725 235.697 72.8791 235.15 75.3652C234.683 77.492 234.257 78.8179 234.042 78.8179C233.952 78.8179 233.741 78.6096 233.575 78.3551C233.135 77.6849 233.327 76.7021 234.425 73.9836C234.939 72.7104 235.334 71.484 235.302 71.2582C235.161 70.2659 233.613 70.9521 232.986 72.2842C232.77 72.7445 232.375 73.9083 232.108 74.8702C231.841 75.8322 231.551 76.6193 231.463 76.6193C231.076 76.6193 231.352 75.0418 232.037 73.3434C232.825 71.3885 232.937 70.5829 232.482 70.1281C232.101 69.7471 231.431 69.7626 231.073 70.1609C230.914 70.3372 230.612 71.1763 230.402 72.0254C230.191 72.8746 229.981 73.6071 229.934 73.6534C229.888 73.6996 229.645 73.6032 229.395 73.4392C228.608 72.9235 228.606 72.099 229.384 69.3823C229.48 69.0477 229.104 68.8944 225.069 67.6194C221.24 66.4098 220.634 66.2628 220.535 66.5201ZM133.748 71.5719C132.032 72.5501 130.688 73.8117 126.318 78.5431C118.664 86.8316 115.063 91.1997 111.592 96.4067C104.569 106.942 100.633 117.119 99.3869 127.963C99.0815 130.621 99.2623 135.853 99.7407 138.2C101.227 145.495 103.612 151.462 108.61 160.391C110.95 164.573 112.13 166.242 114.51 168.74C119.98 174.483 126.503 178.671 129.975 178.671C132.712 178.671 134.196 176.542 133.094 174.197C132.182 172.256 129.881 169.902 122.892 163.758C120.383 161.553 119.565 160.569 117.502 157.275C114.193 151.992 111.502 145.614 109.855 139.156C109.282 136.907 108.936 134.668 108.727 131.845C108.411 127.594 109.052 122.857 110.751 116.874C111.868 112.94 112.98 109.735 114.731 105.396C118.231 96.7228 120.189 93.1678 125.259 86.2833C128.888 81.3564 130.055 79.6924 131.851 76.8901C134.059 73.4442 135.425 70.9387 135.093 70.9424C134.957 70.944 134.352 71.2273 133.748 71.5719ZM35.9199 72.0847C35.9861 72.3114 36.3952 73.3009 36.8292 74.2833C37.3828 75.5363 37.5433 76.0697 37.3671 76.0697C37.0047 76.0697 36.6216 75.4064 36.1024 73.8799C35.6447 72.5341 35.3668 72.0389 35.0695 72.0389C34.7447 72.0389 34.9484 72.9017 35.6316 74.4207C36.0168 75.2773 36.2933 76.0193 36.2458 76.0697C36.0467 76.2818 35.284 75.0909 34.9215 74.0012C34.7062 73.3544 34.4118 72.669 34.2672 72.4779C34.0234 72.156 34.0038 72.1804 33.9985 72.8128C33.9917 73.5999 34.5466 75.0541 36.3252 78.9095C37.0224 80.4211 37.6944 81.913 37.8185 82.225L38.0442 82.7923L39.3928 82.7058C40.1344 82.6581 40.9881 82.7052 41.2898 82.8104C41.7922 82.9856 41.8479 82.9636 41.9521 82.5482C42.2564 81.3353 41.4734 79.0763 39.578 75.699C39.0044 74.6769 38.3452 73.3735 38.1132 72.8024C37.8813 72.2313 37.56 71.7375 37.3993 71.7049C37.2386 71.6723 37.1071 71.7357 37.1071 71.846C37.1071 72.0594 37.675 73.4689 38.461 75.2062C38.9049 76.1878 38.9135 76.252 38.5753 76.0711C38.1285 75.8319 37.7452 75.1116 37.1787 73.446C36.7049 72.053 36.4659 71.6725 36.0646 71.6725C35.8767 71.6725 35.8347 71.7921 35.9199 72.0847ZM215.579 72.276C215.186 72.7525 214.312 75.7703 214.452 76.1683C214.565 76.4902 214.605 76.4713 214.86 75.9768C215.28 75.1591 215.946 72.8042 215.881 72.3636C215.829 72.0147 215.801 72.0065 215.579 72.276ZM214.119 72.5232C213.731 73.2527 212.961 76.1109 213.074 76.4026C213.186 76.6912 213.208 76.6912 213.421 76.4011C213.842 75.8297 214.707 72.5893 214.495 72.3771C214.358 72.2401 214.247 72.2831 214.119 72.5232ZM212.757 72.8647C212.368 73.6204 211.702 75.8304 211.702 76.3637C211.702 77.0506 212.01 76.8795 212.315 76.0239C213.037 73.9964 213.286 73.0191 213.168 72.6811C213.05 72.3473 213.015 72.3628 212.757 72.8647ZM27.903 74.1399C25.914 74.9865 24.2078 75.728 24.1114 75.7875C24.0087 75.8511 24.1213 76.3877 24.3842 77.0862C24.9058 78.4716 24.9522 79.2979 24.5345 79.7595C24.0695 80.2732 23.6204 79.889 23.274 78.6811C22.7607 76.8918 22.1709 76.3756 21.4561 77.0904C20.9403 77.6063 21.123 78.4625 22.2054 80.6032C23.2361 82.6418 23.381 83.4535 22.5245 82.3906C22.2808 82.0883 21.917 81.4044 21.7158 80.8707C21.1965 79.492 20.7154 78.5953 20.2879 78.2087C19.829 77.7937 18.9071 77.8577 18.8212 78.3106C18.7882 78.4848 19.2723 79.7067 19.897 81.0255C21.0895 83.5429 21.4722 85.0473 20.9198 85.0473C20.4862 85.0473 19.8083 83.8927 19.1737 82.0728C18.4999 80.1404 18.2164 79.5715 17.6895 79.0948C17.2935 78.7362 17.2843 78.736 17.0296 79.0843C16.3564 80.005 16.831 81.8672 18.6309 85.3659C19.3443 86.7525 20.1179 88.3818 20.3504 88.9864C20.6703 89.8188 20.8542 90.076 21.108 90.046C21.8084 89.963 36.2847 83.6235 36.3329 83.3786C36.3986 83.0451 31.9418 72.7214 31.7025 72.6531C31.6018 72.6241 29.8919 73.2932 27.903 74.1399ZM36.5575 77.7228C36.5575 78.0821 37.5693 80.5392 37.8951 80.9707C37.9901 81.0968 38.1404 81.1997 38.2287 81.1997C38.5522 81.1997 38.3741 80.4189 37.7283 79.0059C37.0723 77.571 36.5575 77.0066 36.5575 77.7228ZM37.8399 77.8089C37.8399 78.3384 39.1418 81.168 39.4376 81.2815C39.8691 81.4471 39.645 80.441 38.9115 78.9194C38.3153 77.6831 37.8399 77.1904 37.8399 77.8089ZM39.1223 77.9061C39.1223 78.2653 40.1342 80.7225 40.4599 81.1539C40.555 81.28 40.7052 81.383 40.7935 81.383C41.111 81.383 40.9432 80.6561 40.2921 79.2113C39.6375 77.7587 39.1223 77.1838 39.1223 77.9061ZM211.986 79.7153C212.25 79.9649 216.233 81.6627 219.164 82.775C222.015 83.8569 226.089 85.0612 228.35 85.4901C229.999 85.8029 233.137 86.0724 233.137 85.9011C233.137 85.5865 228.189 83.4658 224.526 82.2104C221.318 81.1109 217.756 80.1756 215.457 79.8291C213.393 79.518 211.719 79.463 211.986 79.7153ZM125.369 82.4365C123.169 84.5667 120.308 87.8888 117.443 91.6403C114.813 95.0833 111.133 99.7294 109.921 101.136C109.459 101.673 109.3 101.987 109.427 102.113C109.529 102.216 110.258 102.38 111.047 102.478C112.63 102.674 113.648 103.143 114.096 103.881L114.388 104.363L114.514 103.637C115.377 98.6586 117.388 94.6356 122.755 87.1574C126.106 82.4892 127.113 81.0165 126.955 81.0165C126.889 81.0165 126.176 81.6554 125.369 82.4365ZM36.8323 84.6735C34.8357 85.2014 33.6623 85.6827 29.193 87.8067C26.9059 88.8936 24.3327 90.0495 23.4748 90.3754C22.617 90.7012 21.9513 91.0264 21.9954 91.098C22.1449 91.3399 23.8165 91.4262 24.9232 91.249C26.8291 90.9439 29.1296 90.0546 33.6517 87.8749C36.0634 86.7124 38.735 85.4912 39.5884 85.1613C40.4418 84.8313 41.0847 84.5057 41.0167 84.4379C40.7705 84.1915 38.0836 84.3428 36.8323 84.6735ZM139.872 85.825C139.714 86.0522 139.39 86.5055 139.152 86.8322L138.719 87.4262L139.119 87.8516C139.339 88.0858 139.519 88.3426 139.519 88.4227C139.519 88.5597 138.968 88.474 138.368 88.2435C138.184 88.1728 137.715 88.6627 136.885 89.7935C136.218 90.703 135.671 91.4974 135.671 91.5592C135.671 91.6209 136.362 92.5925 137.205 93.7184C139.568 96.8714 140.895 98.9904 142.447 102.086C146.49 110.153 148.327 116.723 148.619 124.164C148.886 130.936 147.578 137.408 144.286 145.6C143.76 146.91 142.98 148.972 142.552 150.181C142.124 151.39 141.556 152.833 141.289 153.387C140.69 154.632 138.383 157.728 136.52 159.787C135.751 160.637 135.122 161.391 135.122 161.463C135.122 161.594 139.178 164.38 139.368 164.38C139.422 164.38 139.781 163.906 140.166 163.327C140.55 162.747 141.365 161.778 141.976 161.174C142.949 160.212 143.095 160.124 143.145 160.467C143.247 161.157 142.413 162.606 141.253 163.755L140.127 164.87L141.764 165.739L142.207 165.197C149.39 156.396 154.354 146.634 156.367 137.346C158.816 126.043 157.047 113.011 151.569 101.995C148.997 96.8237 144.603 90.3237 140.948 86.2831L140.16 85.4119L139.872 85.825ZM41.5066 85.9584C41.1087 86.7023 40.9674 88.1323 41.1411 89.662C41.9239 96.5581 42.2616 104.701 41.8939 107.818C41.6097 110.226 41.1209 112.403 40.9115 112.194C40.8199 112.102 40.6695 108.904 40.5774 105.087C40.3592 96.0494 40.1221 91.9885 39.6635 89.4425C39.1727 86.7166 39.0688 86.5469 38.5729 87.6642C38.0984 88.7331 38.0609 90.57 38.4628 93.0553C38.9091 95.8151 38.9895 97.6456 38.7741 100.141C38.5795 102.394 38.1563 104.576 37.8531 104.89C37.775 104.97 37.6518 103.243 37.5788 101.05C37.5061 98.8576 37.37 96.1946 37.2767 95.1321C37.1833 94.0696 37.0607 92.2935 37.0041 91.185C36.8696 88.5497 36.8264 88.3736 36.2784 88.2362C35.3122 87.9936 34.3572 89.2083 34.3607 90.6753C34.3616 91.0564 34.5677 92.2737 34.8187 93.3803C35.3807 95.8583 35.4073 97.1953 34.9106 98.0099C34.7109 98.3375 34.4733 98.6053 34.3825 98.6053C34.1672 98.6053 33.8515 96.7442 33.7145 94.6662C33.5703 92.4797 33.2929 91.0617 32.8749 90.3743C32.4181 89.6231 32.2142 89.664 31.9742 90.5553C31.6939 91.596 31.7238 93.4371 32.0812 97.1509C32.468 101.172 32.5026 103.415 32.1939 104.468C31.9517 105.295 31.5017 106.069 31.3511 105.918C31.307 105.874 31.189 103.283 31.0892 100.16C30.9382 95.4445 30.8442 94.2431 30.5348 93.0667C30.33 92.2878 30.0617 91.4634 29.9388 91.2345L29.7157 90.8186L29.4806 91.3683C29.1329 92.1821 29.1877 94.0824 29.6127 95.9487C30.2757 98.8589 30.1044 103.059 28.9327 112.621C28.5336 115.879 28.4365 117.461 28.4274 120.866C28.4169 124.694 28.4615 125.329 28.9142 127.794C29.6255 131.667 29.5832 133.455 28.7256 135.775C28.3435 136.809 28.2533 136.578 27.8715 133.579C27.2235 128.492 27.0596 121.994 27.3959 114.728C27.7521 107.034 27.9468 101.345 27.9699 97.9641C27.9901 95.0306 27.9434 94.3593 27.6728 93.6973C27.2994 92.7831 26.5228 92.2798 25.7755 92.4674C24.6387 92.7527 24.5443 93.4813 25.4248 95.1753L26.0173 96.3151L26.005 100.254C25.9946 103.572 25.9129 104.728 25.4866 107.583C24.8051 112.147 24.7081 116.425 25.0923 124.989C25.4017 131.883 25.6808 135.211 26.3031 139.431C28.0608 151.349 31.9171 161.498 37.7479 169.55C39.2112 171.57 44.096 176.453 46.2673 178.066C50.3433 181.093 56.5092 184.23 63.4377 186.804C69.663 189.116 76.343 190.693 82.5156 191.307C84.9665 191.551 90.0453 191.549 92.4412 191.304C97.0831 190.827 102.24 189.286 104.577 187.676C105.003 187.383 106.093 186.514 107 185.745C108.018 184.881 109.338 183.991 110.449 183.417C112.181 182.523 112.238 182.474 111.939 182.144C111.635 181.808 111.613 181.808 110.947 182.148C110.573 182.339 109.366 183.172 108.267 184C104.8 186.61 102.593 187.291 105.349 184.901C107.517 183.021 108.995 182.023 110.154 181.658C110.991 181.394 111.094 181.313 110.874 181.093C110.654 180.873 110.516 180.9 109.908 181.282C108.851 181.947 107.179 182.519 106.306 182.515L105.534 182.512L106.363 181.991C106.819 181.705 107.725 181.197 108.378 180.863C109.031 180.529 109.597 180.232 109.636 180.201C109.755 180.11 108.721 178.835 108.441 178.728C108.298 178.673 106.555 179.413 104.568 180.373C99.9451 182.605 98.5484 183.079 96.2365 183.204C95.2505 183.257 94.4525 183.228 94.4552 183.139C94.458 183.049 95.1536 182.754 96.0011 182.481C96.8488 182.209 99.2579 181.211 101.355 180.263C103.452 179.315 105.687 178.351 106.322 178.12L107.476 177.699L106.872 177.04C106.54 176.677 106.221 176.317 106.163 176.24C106.105 176.162 105.335 176.438 104.452 176.852C101.987 178.007 100.38 178.503 98.7556 178.611C97.3662 178.704 97.311 178.693 97.6961 178.409C98.4194 177.875 100.838 176.803 103.087 176.02L105.283 175.255L104.068 173.751C102.471 171.773 100.102 168.511 98.8556 166.574C98.306 165.72 97.8346 164.989 97.8077 164.951C97.7809 164.912 96.7878 165.136 95.6008 165.449C91.7235 166.471 90.2104 166.65 85.3816 166.661C80.4719 166.671 79.0742 166.494 75.1242 165.36C64.9984 162.454 56.5931 155.247 51.7129 145.287C50.2482 142.298 49.4421 140.139 48.4775 136.621C46.277 128.595 45.3497 121.33 44.432 104.926C44.2235 101.198 43.9304 96.7457 43.7807 95.0326C43.6312 93.3195 43.4291 90.832 43.3318 89.5048C43.1466 86.98 43.0154 86.4018 42.5138 85.9002C42.1099 85.4962 41.7427 85.5172 41.5066 85.9584ZM133.238 94.7838C132.387 96.0022 132.09 96.5766 132.151 96.8908C132.261 97.4707 132.706 97.4404 133.6 96.7924C134.85 95.8869 135.478 95.6361 136.325 95.7035L137.116 95.7664L136.719 95.308C135.831 94.2829 134.669 93.1088 134.543 93.1088C134.469 93.1088 133.882 93.8626 133.238 94.7838ZM130.059 99.4476C129.367 100.527 128.343 102.156 127.782 103.067L126.764 104.725L128.073 107.299C130.528 112.127 132.07 116.712 132.563 120.646C132.847 122.913 132.699 128.712 132.304 130.824C131.126 137.123 128.383 143.553 124.922 148.129L124.119 149.192L125.152 150.777C125.721 151.65 126.68 153.012 127.283 153.805L128.381 155.247L128.845 154.821C129.638 154.094 132.528 150.676 132.806 150.138C132.952 149.857 133.81 147.856 134.713 145.69C138.726 136.07 139.954 131.04 139.945 124.256C139.937 117.594 138.491 111.848 134.86 104.043C134.08 102.367 132.056 98.5668 131.543 97.8166C131.342 97.5218 131.18 97.7002 130.059 99.4476ZM220.805 99.2916C220.745 99.8715 220.607 102.366 220.499 104.835C219.662 123.982 219.338 128.239 218.191 135.112C215.197 153.062 208.413 164.949 196.862 172.49C193.758 174.516 191.649 175.688 186.239 178.395L181.375 180.828L178.63 181.212C177.12 181.423 174.648 181.724 173.137 181.881C168.016 182.414 164.929 182.966 162.603 183.763C161.614 184.102 161.594 184.123 161.538 184.878C161.387 186.936 162.828 189.14 164.947 190.091C168.351 191.618 173.766 191.849 180.19 190.741C184.476 190.002 185.572 189.646 188.526 188.04C189.534 187.492 191.966 186.203 193.931 185.175C201.32 181.309 205.209 178.633 209.417 174.517C216.193 167.892 220.692 159.671 223.589 148.623C224.966 143.373 225.477 139.145 225.483 132.958C225.489 127.2 225.218 124.133 223.794 113.812C223.397 110.94 222.99 107.065 222.889 105.201C222.696 101.651 222.558 100.883 221.863 99.5099C221.154 98.1086 220.932 98.0628 220.805 99.2916ZM138.38 99.9661C138.004 100.483 136.655 101.17 136.017 101.17C135.766 101.17 135.463 101.071 135.342 100.95C135.198 100.807 135.122 100.799 135.122 100.928C135.122 101.171 135.314 101.634 137.243 106.058C138.985 110.054 140.112 113.296 140.432 115.232C140.64 116.491 140.984 117.054 140.984 116.134C140.984 115.003 143.813 113.806 144.631 114.591C144.826 114.778 144.847 114.637 144.745 113.812C144.42 111.172 143.036 107.329 141.082 103.644C139.183 100.063 138.882 99.5243 138.786 99.5287C138.736 99.5309 138.553 99.7277 138.38 99.9661ZM33.912 102.654C33.1211 104.384 32.9256 106.268 32.6917 114.413C32.2908 128.363 33.0452 136.405 35.6088 145.509C37.9817 153.935 42.4096 162.271 47.0729 167.09C52.5375 172.737 59.6442 176.726 71.5663 180.836C75.3834 182.152 78.9898 182.702 83.8097 182.702C90.6997 182.702 95.6527 181.199 96.8389 178.748C97.5776 177.222 96.9803 175.718 95.3579 175.02C93.585 174.258 91.8011 174.07 84.832 173.914C78.5034 173.772 78.1663 173.746 76.4962 173.282C72.1987 172.089 69.2748 170.957 65.2291 168.92C59.4334 166.002 55.1876 162.914 51.6931 159.077C47.5542 154.533 42.7467 144.48 39.4221 133.416C37.8196 128.084 37.204 124.528 36.6474 117.385C36.3228 113.22 36.1244 111.286 35.7263 108.407C35.4551 106.447 34.5706 101.886 34.4328 101.738C34.3951 101.697 34.1608 102.11 33.912 102.654ZM124.552 108.802C117.903 121.761 117.143 134.244 122.307 145.688C122.693 146.543 123.087 147.268 123.183 147.3C123.48 147.399 126.084 143.683 127.134 141.661C128.847 138.36 129.725 135.7 130.399 131.768C130.916 128.752 130.952 123.508 130.476 120.426C129.862 116.443 128.654 112.502 126.959 108.957C125.681 106.285 125.838 106.295 124.552 108.802ZM107.653 107.534C106.484 108.953 105.219 111.831 104.263 115.247C103.489 118.011 102.305 123.382 102.41 123.655C102.492 123.868 102.601 123.846 102.993 123.537C103.868 122.848 105.708 123.17 106.659 124.178L107.238 124.792L107.614 123.379C107.821 122.602 108.331 120.44 108.748 118.576C109.86 113.605 111.137 109.838 112.231 108.302C112.701 107.642 112.632 107.505 111.96 107.761C111.687 107.865 110.967 107.949 110.359 107.949C109.366 107.949 109.201 107.893 108.738 107.397L108.222 106.845L107.653 107.534ZM222.266 111.98C221.848 113.485 221.741 114.949 221.597 121.141C221.393 129.933 221.094 131.915 219.436 135.498C218.818 136.835 218.792 136.955 219.086 137.169C219.26 137.296 219.995 137.459 220.719 137.53C222.242 137.68 222.822 137.935 223.515 138.759L224.013 139.352L223.901 136.979C223.838 135.675 223.705 132.67 223.603 130.302C223.436 126.415 222.582 112.788 222.448 111.889C222.401 111.571 222.377 111.583 222.266 111.98ZM152.997 113.727C152.829 115.195 153.108 117.898 153.903 122.521C155.035 129.103 154.857 131.345 152.611 138.73C151.736 141.607 151.159 143.97 150.978 145.417L150.864 146.333L151.376 145.417C154.615 139.629 156.205 132.101 155.657 125.152C155.347 121.217 154.597 117.306 153.466 113.727L153.121 112.634L152.997 113.727ZM34.6199 114.568C34.3227 115.048 34.3169 123.397 34.6105 127.92C34.7707 130.389 34.957 133.948 35.0246 135.829L35.1472 139.249L35.6226 139.069C35.884 138.969 36.3455 138.7 36.6483 138.47C37.682 137.684 38.4113 137.402 39.1522 137.501C39.5388 137.553 39.8552 137.569 39.8552 137.536C39.8552 137.502 39.5303 136.871 39.1335 136.133C37.0072 132.178 36.2691 128.908 35.3582 119.404C35.0975 116.684 34.8568 114.432 34.8233 114.399C34.7895 114.365 34.6981 114.441 34.6199 114.568ZM145.931 118.433C145.931 118.862 144.51 120.015 143.721 120.228C142.892 120.451 142.047 120.297 141.547 119.831L141.168 119.478L141.167 122.004C141.167 125.381 140.851 130.99 140.513 133.652C140.361 134.839 140.28 135.88 140.332 135.964C140.384 136.048 141.026 136.175 141.759 136.247C143.432 136.41 144.114 136.729 144.597 137.575L144.978 138.241L145.443 137.324C146.047 136.131 146.773 133.542 147.046 131.609C147.351 129.441 147.166 124.227 146.67 121.049C146.45 119.639 146.194 118.406 146.101 118.31C145.995 118.202 145.931 118.248 145.931 118.433ZM93.5621 124.665C90.7286 134.248 92.0347 143.967 97.8927 156.887C98.5936 158.433 99.2585 158.727 99.7269 157.699C99.8959 157.328 99.7872 157.021 98.9523 155.51C96.6753 151.389 94.9447 145.814 94.1694 140.104C93.7643 137.121 93.6147 129.83 93.886 126.295C94.0049 124.747 94.0692 123.447 94.0289 123.407C93.9888 123.366 93.7786 123.933 93.5621 124.665ZM101.892 129.035C100.653 134.166 101.294 140.439 103.73 147.025C104.095 148.01 104.466 148.861 104.556 148.917C104.646 148.972 105.181 148.596 105.745 148.081C107.182 146.767 107.681 146.542 108.882 146.666L109.873 146.768L109.748 145.635C109.679 145.011 109.334 142.976 108.98 141.112C107.922 135.532 107.799 134.551 107.777 131.564L107.756 128.704L106.958 129.056C105.915 129.518 104.087 129.567 103.31 129.153C102.983 128.979 102.651 128.608 102.541 128.292C102.434 127.987 102.315 127.737 102.276 127.737C102.237 127.737 102.064 128.321 101.892 129.035ZM137.872 142.531C136.37 145.872 134.964 148.629 134.267 149.603C133.917 150.092 133.677 150.538 133.734 150.595C133.791 150.652 134.547 150.803 135.414 150.931C137.2 151.195 138.221 151.738 138.71 152.684L139.01 153.265L140.185 151.448C142.274 148.216 143.631 145.068 143.854 142.937L143.967 141.855L143.347 142.033C141.739 142.494 140.357 142.101 139.498 140.939C139.27 140.631 139.029 140.379 138.962 140.379C138.895 140.379 138.404 141.348 137.872 142.531ZM40.2379 141.946C39.5375 142.974 38.8565 143.372 37.9931 143.256L37.2579 143.158L37.3879 144.287C37.5851 146.001 38.1193 147.852 39.0472 150.038C40.0364 152.367 43.2904 158.517 43.5337 158.517C43.6264 158.517 43.7025 158.326 43.7025 158.093C43.7025 157.198 45.5118 156.035 46.6636 156.189C47.0502 156.241 47.3653 156.23 47.3636 156.164C47.362 156.098 46.6579 154.725 45.7991 153.112C42.5725 147.055 41.2798 144.103 41.0301 142.221C40.9625 141.712 40.856 141.295 40.7934 141.296C40.7309 141.297 40.4808 141.589 40.2379 141.946ZM218.49 141.534C218.485 141.616 217.815 143.8 217.002 146.389C215.211 152.095 214.006 155.186 212.796 157.177C212.295 158.002 211.885 158.723 211.885 158.78C211.885 159.002 212.451 158.869 212.545 158.625C212.824 157.899 215.167 158.197 216.111 159.079C216.459 159.404 216.645 159.725 216.582 159.891C216.139 161.045 217.895 158.635 218.718 156.96C219.88 154.593 221.21 150.261 222.149 145.784C222.36 144.776 222.568 143.828 222.611 143.677C222.675 143.453 222.475 143.402 221.547 143.402C220.058 143.402 219.028 142.895 218.719 142.012C218.599 141.668 218.496 141.453 218.49 141.534ZM149.229 149.938C148.161 150.341 147.608 151.202 146.306 154.487C145.89 155.536 145.343 156.666 145.09 156.998C144.363 157.95 145.049 157.769 146.044 156.745C146.649 156.122 147.277 155.069 148.345 152.885C149.153 151.233 149.786 149.855 149.75 149.823C149.715 149.791 149.48 149.843 149.229 149.938ZM111.449 151.527C109.935 152.838 109.261 153.204 108.358 153.204C107.876 153.204 107.267 153.122 107.004 153.022C106.531 152.843 106.527 152.848 106.641 153.526C106.995 155.644 107.806 157.316 110.219 160.91C111.21 162.386 112.121 163.812 112.242 164.078C112.364 164.345 112.518 164.563 112.584 164.563C112.651 164.563 113.277 164.069 113.975 163.464C115.659 162.006 116.216 161.755 117.559 161.852C118.15 161.895 118.633 161.9 118.633 161.863C118.633 161.646 117.798 160.258 116.035 157.55C114.164 154.674 112.588 151.791 112.588 151.244C112.588 150.849 112.088 150.973 111.449 151.527ZM143.699 153.702C142.82 154.247 142.567 155.219 143.304 155.219C143.747 155.219 144.852 154.019 144.721 153.679C144.58 153.31 144.32 153.316 143.699 153.702ZM130.646 155.235L129.578 156.533L130.472 157.448C130.964 157.952 131.917 158.855 132.59 159.456L133.815 160.548L135.481 158.607C136.397 157.54 137.103 156.594 137.049 156.507C136.994 156.419 136.394 156.289 135.715 156.218C135.036 156.147 134.172 155.967 133.796 155.818C133.138 155.558 132.007 154.481 132.007 154.114C132.007 153.716 131.661 154.002 130.646 155.235ZM141.483 156.823C141.158 157.183 139.656 160.365 139.762 160.47C139.927 160.636 140.847 159.695 141.195 159.004C141.405 158.585 141.856 157.851 142.197 157.372L142.816 156.502H142.295C142.008 156.502 141.643 156.647 141.483 156.823ZM49.8417 159.429C49.4416 160.316 48.1399 161.569 47.4334 161.746C47.1004 161.83 46.7506 161.77 46.4033 161.571C45.8859 161.274 45.8793 161.276 45.9997 161.679C46.5804 163.627 49.7352 167.546 52.6191 169.902C55.0691 171.904 59.9634 174.929 60.2649 174.627C60.3186 174.574 60.4121 174.039 60.4727 173.44C60.6506 171.681 61.0025 170.919 61.8586 170.438C62.2688 170.207 62.5354 169.956 62.4511 169.878C61.1526 168.694 59.4882 167.302 57.6261 165.844C54.4515 163.358 53.0566 162.094 51.7481 160.515C50.0692 158.489 50.2253 158.578 49.8417 159.429ZM208.495 163.497C206.155 166.147 201.155 171.24 199.265 172.9C198.461 173.605 197.798 174.246 197.791 174.324C197.784 174.402 198.267 174.992 198.864 175.634C200.124 176.989 200.509 177.931 200.183 178.867C200.068 179.195 200.004 179.492 200.039 179.528C200.181 179.67 202.35 178.579 203.73 177.672C206.259 176.01 208.739 173.584 211.187 170.376C212.478 168.685 215.438 164.025 215.306 163.893C215.255 163.842 215.047 163.89 214.844 163.999C213.952 164.476 211.741 164.012 210.964 163.184C210.734 162.939 210.497 162.443 210.437 162.081L210.327 161.423L208.495 163.497ZM101.487 162.316C102.078 163.992 102.988 165.448 105.352 168.502C106.719 170.267 106.766 170.308 106.641 169.609C106.272 167.552 104.17 164.246 101.963 162.252L101.231 161.591L101.487 162.316ZM137.877 161.985C137.652 162.405 137.807 162.914 138.16 162.914C138.298 162.914 138.551 162.701 138.721 162.441C138.986 162.037 138.993 161.943 138.771 161.802C138.364 161.544 138.082 161.602 137.877 161.985ZM37.6761 164.067C39.0632 167.472 41.3847 170.849 44.4388 173.904C47.8816 177.347 51.7924 180.02 57.7506 183.004C60.4943 184.378 61.3678 184.737 61.7353 184.645C62.1036 184.553 62.2062 184.413 62.2062 184.003C62.2062 183.43 61.9891 183.186 61.2902 182.974C60.1719 182.634 56.833 181.115 55.2175 180.211C49.566 177.047 43.6741 171.532 38.6944 164.747C37.9918 163.789 37.3456 162.926 37.258 162.828C37.1707 162.73 37.3588 163.287 37.6761 164.067ZM223.581 165.81C222.232 167.267 221.222 168.718 219.218 172.074C214.941 179.238 213.846 180.351 206.26 185.239C202.51 187.656 201.135 188.62 199.976 189.648L199.335 190.217L200.16 189.919C201.715 189.356 205.564 187.442 207.304 186.365C210.728 184.247 214.756 180.629 217.41 177.288C218.774 175.573 220.778 172.563 221.952 170.469C223.04 168.528 224.76 164.92 224.65 164.809C224.609 164.769 224.128 165.219 223.581 165.81ZM120.243 165.964C118.697 167.352 117.771 167.756 116.483 167.605L115.492 167.488L116.101 168.344C117.114 169.766 120.237 172.93 121.765 174.081C124.346 176.026 127.008 177.041 128.786 176.756C129.68 176.613 131.083 175.868 131.731 175.192L132.213 174.688L130.674 173.336C129.827 172.592 127.924 170.961 126.446 169.711C124.967 168.46 123.296 166.873 122.732 166.184C122.168 165.494 121.636 164.93 121.551 164.93C121.465 164.93 120.877 165.395 120.243 165.964ZM107.091 165.766C107.091 166.314 107.452 166.72 108.208 167.022C109.081 167.372 109.196 167.325 109.034 166.681C108.96 166.386 108.654 166.082 108.195 165.848C107.325 165.404 107.091 165.387 107.091 165.766ZM109.676 168.755C109.777 169.045 110.39 169.871 111.038 170.59C111.686 171.309 112.267 172.102 112.33 172.352C112.392 172.601 112.517 172.76 112.607 172.704C113.182 172.349 112.228 170.437 110.844 169.173C110.275 168.653 109.738 168.228 109.651 168.228C109.564 168.228 109.575 168.465 109.676 168.755ZM66.6092 172.386C66.4952 172.971 66.362 173.659 66.3131 173.915C66.1585 174.726 65.5691 175.486 64.7978 175.867L64.0507 176.237L64.4567 176.607C65.7246 177.762 67.5494 178.527 71.6279 179.614C73.1334 180.015 74.5254 180.429 74.7213 180.534C75.2028 180.792 75.3304 180.546 75.4882 179.056C75.6868 177.183 76.1723 176.239 77.2915 175.55L77.8118 175.229L76.7644 174.837C76.1884 174.621 74.4192 174.079 72.833 173.633C70.5213 172.982 68.4652 172.198 66.9387 171.387C66.8715 171.351 66.7233 171.801 66.6092 172.386ZM109.473 173.13C109.473 173.833 110.588 175.194 112.254 176.526C113.193 177.277 113.987 177.825 114.018 177.745C114.252 177.141 112.097 174.584 110.343 173.385C109.588 172.869 109.473 172.835 109.473 173.13ZM114.326 173.94C114.453 174.377 115.228 175.19 115.52 175.19C115.884 175.19 115.26 174.061 114.75 173.797C114.212 173.519 114.205 173.521 114.326 173.94ZM119.922 175.771C120.655 176.838 121.266 177.41 122.16 177.867C122.639 178.111 123.03 178.255 123.03 178.187C123.03 178.018 122.175 176.911 121.689 176.451C121.469 176.243 120.888 175.868 120.397 175.617L119.503 175.16L119.922 175.771ZM81.5492 176.133C81.0382 179.258 80.827 179.786 79.8378 180.412C79.5191 180.613 79.2552 180.829 79.2514 180.892C79.227 181.284 84.5502 181.857 87.1184 181.738C91.7709 181.524 94.4928 179.778 94.7764 176.827L94.8603 175.954L88.9301 175.86C85.6685 175.809 82.696 175.711 82.3247 175.643C81.669 175.523 81.6466 175.536 81.5492 176.133ZM192.817 177.2C192.356 177.387 190.671 178.132 189.074 178.855C186.287 180.116 182.761 181.419 182.136 181.419C181.973 181.419 181.839 181.467 181.839 181.526C181.839 181.585 182.324 182.183 182.916 182.855C184.405 184.543 184.643 185.067 184.554 186.465L184.481 187.606L185.404 187.336C189.965 186.002 192.553 184.94 194.433 183.632C195.725 182.734 196.799 181.835 196.678 181.754C196.628 181.721 196.177 181.488 195.676 181.236C195.112 180.952 194.558 180.482 194.222 180C193.751 179.325 193.681 179.064 193.69 178.03C193.696 177.375 193.691 176.843 193.679 176.849C193.666 176.854 193.278 177.012 192.817 177.2ZM117.717 177.705C117.717 178.29 118.669 179.538 119.714 180.323C120.248 180.724 121.522 181.519 122.545 182.089C123.568 182.659 125.545 183.812 126.94 184.652C130.347 186.703 132.439 187.325 133.656 186.648L134.114 186.394L133.618 186.204C128.558 184.271 123.496 181.471 118.13 177.638C117.742 177.361 117.717 177.365 117.717 177.705ZM132.832 179.222C133.482 179.908 136.086 181.204 138.139 181.865C140.091 182.493 145.263 183.641 145.015 183.391C144.878 183.253 140.415 181.3 138.39 180.492C136.812 179.863 134.379 179.106 132.832 178.764L132.282 178.643L132.832 179.222ZM115.336 179.345C115.336 179.641 117.095 181.852 117.938 182.615C119.98 184.462 123.486 186.483 128.786 188.865C129.987 189.405 131.005 189.811 131.048 189.768C131.091 189.725 131.07 189.436 131.002 189.125C130.829 188.339 129.991 187.767 128.16 187.185C126.07 186.521 122.564 184.425 117.651 180.902C116.377 179.989 115.336 179.288 115.336 179.345ZM126.878 180.503C126.878 180.748 128.345 181.942 129.363 182.524C130.921 183.418 133.37 184.268 137.778 185.446C140.096 186.066 142.425 186.769 142.954 187.009C143.483 187.249 143.916 187.383 143.916 187.308C143.916 187.096 142.797 186.1 142.084 185.677C140.953 185.007 138.696 184.198 134.269 182.876C131.892 182.167 129.257 181.308 128.413 180.968C127.568 180.627 126.878 180.418 126.878 180.503ZM101.101 183.541C97.2823 184.811 92.9207 185.728 88.4248 186.208C86.3744 186.427 86.3453 186.437 86.7449 186.761C87.7935 187.61 89.2121 187.649 92.7882 186.926C94.2564 186.629 96.4243 186.217 97.6052 186.009C100.969 185.418 102.495 184.705 103.164 183.413C103.508 182.748 103.483 182.749 101.101 183.541ZM176.343 183.169C174.401 183.506 164.875 184.534 163.696 184.534C163.308 184.534 163.291 184.589 163.395 185.469C163.607 187.254 164.886 188.766 166.816 189.51C167.618 189.82 168.365 189.918 170.473 189.989C172.709 190.065 173.715 189.998 176.931 189.558C179.026 189.272 180.74 188.986 180.74 188.921C180.74 188.857 180.204 188.196 179.549 187.452C178.182 185.898 177.906 185.238 178.047 183.866C178.119 183.172 178.085 182.892 177.933 182.908C177.814 182.921 177.099 183.038 176.343 183.169ZM86.9453 183.692L86.3107 183.921L87.1638 184.136C88.2418 184.407 89.5933 184.39 90.4134 184.094L91.048 183.864L90.1948 183.65C89.1168 183.378 87.7653 183.396 86.9453 183.692ZM147.836 184.147C148.244 184.598 149.919 185.485 151.447 186.059C154.035 187.031 160.292 188.556 160.564 188.281C160.627 188.218 160.432 187.959 160.129 187.707C159.116 186.862 157.443 186.207 155.274 185.807C149.886 184.813 149.281 184.674 148.518 184.248C147.554 183.71 147.423 183.691 147.836 184.147ZM73.1069 184.132C72.9054 184.176 72.5441 184.286 72.3041 184.377C71.8822 184.538 71.8785 184.555 72.1951 184.905C72.5716 185.321 73.0114 185.358 73.8725 185.047C74.53 184.809 74.6077 184.677 74.2519 184.402C73.9077 184.135 73.5152 184.043 73.1069 184.132ZM75.2977 185.071C75.5083 185.412 76.2633 185.637 77.8623 185.837C78.6728 185.938 79.5185 186.139 79.7417 186.285C80.2904 186.643 80.393 186.618 80.1606 186.183C79.7862 185.484 78.5459 185.024 76.7913 184.936C75.5618 184.873 75.196 184.907 75.2977 185.071ZM12.7815 185.719C9.8676 186.629 9.07817 189.915 11.4791 191.14C12.272 191.545 12.7175 191.582 13.3432 191.297C13.8093 191.085 14.3897 190.247 14.3897 189.786C14.3897 189.323 13.8505 188.931 13.2142 188.931C12.5759 188.931 12.008 188.473 12.008 187.958C12.008 187.791 12.2456 187.388 12.5362 187.063C13.0191 186.523 13.1746 186.466 14.3528 186.399C16.5394 186.276 18.3548 187.121 17.9231 188.062C17.7062 188.534 14.1321 193.652 13.7391 194.052C13.5117 194.284 13.3718 194.243 12.6463 193.732C11.6626 193.038 11.6174 193.031 11.3072 193.528C11.0438 193.95 11.1035 194.025 12.3367 194.814C13.0541 195.273 13.2836 194.81 10.1686 199.191C7.94945 202.312 7.422 202.913 6.32863 203.569C5.01047 204.359 2.62514 203.836 1.99583 202.619C1.83498 202.308 1.7104 201.706 1.71901 201.28C1.73934 200.265 1.41837 199.984 0.675473 200.369C-0.109011 200.774 -0.197501 201.256 0.344054 202.174C0.874616 203.074 2.13287 204.079 3.67894 204.837C6.58842 206.264 9.42864 206.042 11.4331 204.231C11.8481 203.856 13.0649 202.301 14.1376 200.775C15.21 199.249 16.153 197.928 16.2327 197.84C16.3461 197.714 19.3653 199.62 20.1373 200.304C20.2255 200.382 19.8037 201.132 19.2003 201.971C16.0205 206.392 15.4889 207.274 15.4889 208.129C15.4889 208.828 15.5871 209.042 16.1759 209.628C16.9593 210.407 18.623 211.1 19.7096 211.1C20.6318 211.1 20.6291 210.908 19.7008 210.518C19.2105 210.312 18.9698 210.096 18.9698 209.861C18.9698 209.605 23.1212 203.406 23.6421 202.886C23.6818 202.846 24.1865 203.148 24.7638 203.558C25.7247 204.24 25.8334 204.276 26.0499 203.991C26.4244 203.498 26.3453 203.356 25.2885 202.623L24.2932 201.931L26.5165 198.775C29.4676 194.585 30.183 193.665 31.0903 192.888C32.0277 192.086 32.8216 191.905 33.6117 192.313C34.2844 192.661 34.5422 193.219 34.5422 194.326C34.5422 195.354 34.9035 195.693 35.5489 195.269C36.5087 194.64 35.9992 193.176 34.3729 191.891C31.8253 189.877 28.5067 190.226 25.9376 192.779C25.3798 193.333 24.0218 195.08 22.9199 196.662C21.6871 198.431 20.8379 199.489 20.7121 199.41C20.5996 199.34 19.707 198.719 18.7283 198.031L16.9492 196.778L17.9512 195.374C21.1296 190.918 21.7675 189.887 21.6455 189.4C21.4451 188.602 20.3704 187.599 18.845 186.786C16.476 185.524 14.5131 185.178 12.7815 185.719ZM66.0227 185.787C66.9752 186.52 71.0453 187.717 73.9313 188.114L74.7557 188.227L74.2977 187.846C72.874 186.662 68.9243 185.444 66.5412 185.454L65.5955 185.458L66.0227 185.787ZM82.0984 185.797C81.7646 185.928 81.769 185.951 82.1849 186.242C82.6623 186.577 83.2247 186.633 83.6141 186.387C83.8081 186.264 83.7696 186.165 83.4358 185.931C82.9785 185.611 82.6553 185.579 82.0984 185.797ZM99.7064 186.933C97.8797 187.748 92.658 188.649 87.538 189.034C86.6078 189.104 85.888 189.228 85.9384 189.309C85.9888 189.391 86.6608 189.598 87.4315 189.769C89.37 190.2 92.5197 190.051 95.4579 189.388C97.5138 188.925 103.057 187.347 103.226 187.178C103.268 187.136 103.153 186.936 102.97 186.734C102.47 186.18 101.225 186.256 99.7064 186.933ZM146.481 187.818C147.665 188.445 153.147 190.547 155.274 191.189C158.174 192.065 160.755 192.601 162.603 192.711L164.16 192.804L163.335 192.408C161.799 191.672 157.21 190.012 154.725 189.294C152.275 188.587 148.523 187.78 146.755 187.582L145.839 187.479L146.481 187.818ZM137.088 188.354C138.058 189.184 139.859 189.704 143.183 190.112L144.007 190.213L143.274 189.754C142.242 189.108 140.794 188.591 138.878 188.186C136.565 187.697 136.345 187.718 137.088 188.354ZM78.6274 188.178C77.9538 188.284 77.9358 188.304 78.261 188.584C78.4491 188.747 78.8833 188.973 79.2257 189.088C79.9009 189.315 82.3164 189.346 83.6412 189.145L84.4656 189.02L83.7921 188.699C82.5148 188.089 80.4926 187.885 78.6274 188.178ZM132.007 189.568C132.007 189.741 133.088 190.208 133.921 190.394C134.389 190.499 135.96 190.665 137.412 190.763C139.752 190.921 140.941 191.087 142.175 191.428C142.377 191.483 142.228 191.309 141.845 191.041C140.842 190.34 139.405 189.895 137.42 189.674C135.67 189.479 132.007 189.407 132.007 189.568ZM144.832 190.052C144.832 190.345 145.648 191.072 146.421 191.466C146.818 191.668 148.227 192.159 149.552 192.555C151.455 193.125 151.929 193.215 151.803 192.98C151.357 192.147 150.349 191.639 148.119 191.125C147.168 190.905 146.038 190.534 145.61 190.299C145.182 190.065 144.832 189.953 144.832 190.052ZM245.092 190.938C243.712 191.591 242.183 192.968 241.724 193.97C241.54 194.373 241.387 195.061 241.385 195.499C241.375 197.471 244.115 198.348 244.574 196.519C244.653 196.208 244.59 195.878 244.398 195.585C244.147 195.201 243.984 195.141 243.336 195.192C242.617 195.248 242.568 195.221 242.513 194.737C242.466 194.332 242.626 194.05 243.267 193.409C243.975 192.701 244.182 192.595 244.862 192.595C245.52 192.595 245.74 192.698 246.26 193.25C247.242 194.291 247.178 195.092 245.952 197.105C244.755 199.072 244.495 199.734 244.495 200.822C244.495 202.013 244.697 202.502 245.591 203.472C246.892 204.883 248.541 204.999 250.014 203.782C250.765 203.161 251.457 201.845 251.457 201.036C251.457 200.369 251.663 200.222 252.117 200.565C252.671 200.985 253.844 200.903 254.594 200.393C255.329 199.894 255.778 199.089 255.961 197.943C256.099 197.084 255.851 196.91 255.521 197.634C255.406 197.886 255.185 198.092 255.03 198.092C254.875 198.092 253.687 196.67 252.389 194.931C251.092 193.193 249.845 191.576 249.619 191.339C248.587 190.255 246.858 190.103 245.092 190.938ZM186.541 191.435C186.304 191.672 186.424 192.035 186.807 192.24C187.398 192.557 188.801 192.297 188.801 191.871C188.801 191.686 188.67 191.485 188.511 191.424C188.121 191.274 186.694 191.282 186.541 191.435ZM145.145 192.137C145.468 192.286 146.169 192.684 146.702 193.022C147.235 193.359 148.743 194.198 150.053 194.885C151.363 195.571 152.929 196.416 153.534 196.762L154.633 197.39L153.717 196.445C151.296 193.946 148.387 192.388 145.381 191.98L144.557 191.868L145.145 192.137ZM170.664 192.229C170.412 192.31 169.897 192.384 169.519 192.394C168.786 192.413 168.659 192.591 169.11 192.965C169.309 193.13 169.658 193.154 170.346 193.048C170.873 192.967 171.688 192.894 172.157 192.886C172.886 192.872 172.986 192.827 172.849 192.571C172.568 192.047 171.672 191.906 170.664 192.229ZM192.614 192.32C192.242 192.457 191.006 193.062 189.866 193.666C188.726 194.27 187.422 194.869 186.969 194.997L186.144 195.229L186.786 195.337C188.068 195.553 188.985 195.283 193.81 193.271C195.545 192.548 195.749 192.418 195.425 192.244C194.923 191.976 193.442 192.016 192.614 192.32ZM181.89 193.102C180.44 193.774 180.09 194.003 180.341 194.119C180.555 194.216 181.334 194.044 182.617 193.615C183.69 193.256 184.716 192.959 184.898 192.956C185.183 192.951 185.169 192.9 184.796 192.589C184.558 192.391 184.228 192.23 184.063 192.232C183.898 192.234 182.92 192.625 181.89 193.102ZM154.922 193.588C154.678 193.848 154.514 194.088 154.556 194.123C154.658 194.208 161.381 195.656 163.244 195.996C166.888 196.659 170.645 196.498 172.598 195.593L173.32 195.258L172.129 195.214C168.53 195.081 163.118 194.748 160.954 194.528C159.056 194.335 158.243 194.166 157.461 193.804C155.876 193.071 155.443 193.034 154.922 193.588ZM230.342 193.344C228.534 193.77 226.789 195.125 226.152 196.596C225.565 197.952 225.839 198.736 226.467 197.496C227.201 196.048 228.291 195.441 229.924 195.572C231.242 195.677 232.45 196.244 233.927 197.446C235.075 198.382 235.201 198.642 234.505 198.642C233.403 198.642 231.963 199.634 231.22 200.905C230.647 201.886 230.369 203.597 230.59 204.786C231.035 207.175 232.868 209.747 234.822 210.723C237.46 212.041 240.747 210.975 242.209 208.327C242.699 207.438 242.751 207.187 242.744 205.695C242.738 204.292 242.652 203.836 242.171 202.629C240.949 199.569 237.557 195.452 235.229 194.205C233.529 193.294 231.826 192.994 230.342 193.344ZM176.98 194.249C176.533 194.743 176.841 195.058 177.607 194.89C178.201 194.759 178.328 194.47 177.955 194.098C177.64 193.782 177.363 193.825 176.98 194.249ZM180.648 196.195C179.788 196.307 176.832 197.016 176.526 197.183C175.975 197.485 177.292 197.762 178.925 197.687C180.216 197.628 180.693 197.518 181.569 197.075C182.156 196.778 182.643 196.452 182.65 196.351C182.664 196.158 181.578 196.074 180.648 196.195ZM247.326 196.561C246.362 197.602 246.866 199.622 248.434 200.998C249.957 202.336 251.479 201.011 250.556 199.15C250.023 198.076 248.396 196.077 248.054 196.077C247.901 196.077 247.573 196.295 247.326 196.561ZM157.038 197.719C158.332 198.338 160.422 198.899 162.478 199.179C164.569 199.464 168.828 199.418 171.425 199.082C174.507 198.684 174.566 198.593 171.946 198.292C170.989 198.182 167.815 197.97 164.893 197.821C159.962 197.569 158.562 197.474 156.648 197.263C155.921 197.183 155.924 197.186 157.038 197.719ZM234.328 199.95C233.104 200.284 232.984 201.524 233.975 203.592C235.04 205.815 236.561 207.907 237.867 208.948C238.703 209.613 239.606 209.631 240.026 208.99C240.696 207.968 239.933 205.668 237.955 202.747C236.178 200.121 235.53 199.621 234.328 199.95ZM30.3065 203.285C26.6772 204.293 24.1215 209.04 25.2971 212.589C25.7929 214.086 27.3025 215.487 29.0135 216.037C30.5996 216.547 31.5507 216.463 33.1997 215.668C34.6098 214.987 35.9664 213.544 36.7704 211.869C37.2551 210.86 37.3727 210.367 37.4347 209.085C37.5059 207.604 37.4794 207.469 36.8935 206.342C35.6671 203.983 32.7188 202.615 30.3065 203.285ZM32.2402 205.215C31.5844 205.615 30.8358 206.539 29.9227 208.077C27.6295 211.94 27.2267 213.878 28.5822 214.524C29.175 214.807 29.2282 214.8 29.9923 214.349C31.6696 213.361 34.5457 208.495 34.606 206.545C34.6536 205.002 33.5793 204.398 32.2402 205.215ZM222.986 205.236C219.735 206.274 217.863 209.17 219.321 210.903C219.961 211.664 221.016 211.702 221.581 210.984C222.3 210.071 221.911 209.229 220.756 209.196C220.277 209.183 220.026 209.086 219.992 208.902C219.899 208.391 220.638 207.489 221.482 207.079C222.21 206.727 222.408 206.701 222.963 206.884C223.674 207.119 224.29 207.858 224.452 208.67C224.601 209.413 224.188 210.258 223.002 211.642C221.041 213.931 220.634 215.643 221.644 217.366C222.391 218.641 223.097 219.07 224.448 219.07C226.236 219.07 227.522 218.011 228.048 216.105L228.259 215.339L228.759 215.694C230.383 216.851 232.56 215.657 233.041 213.345C233.193 212.619 233.067 212.596 232.508 213.247C232.154 213.659 232.032 213.705 231.805 213.517C231.653 213.392 230.687 211.745 229.658 209.859C228.628 207.972 227.609 206.232 227.392 205.992C226.841 205.38 225.666 204.878 224.801 204.885C224.398 204.888 223.581 205.046 222.986 205.236ZM203.694 207.269C203.269 207.478 202.637 207.966 202.289 208.351C201.238 209.515 201.005 210.206 201.889 209.537C202.544 209.042 202.873 209.21 203.431 210.322C203.722 210.901 205.38 214.467 207.116 218.246C208.851 222.025 210.403 225.22 210.564 225.345C211.432 226.027 213.87 224.998 213.894 223.94C213.897 223.797 213.076 221.894 212.068 219.711C210.111 215.473 209.973 214.924 210.6 213.894C211.352 212.662 212.659 213.294 213.96 215.52C214.741 216.858 216.105 220.216 216.499 221.775C216.913 223.413 216.861 224.21 216.29 225.014C215.762 225.754 216.122 225.897 216.969 225.283C219.792 223.236 220.161 219.575 218.007 214.978C216.998 212.823 216.074 211.56 215.02 210.891C213.122 209.688 210.976 210.725 210.076 213.28C209.895 213.795 209.711 214.251 209.668 214.294C209.626 214.337 208.891 212.842 208.036 210.973C207.107 208.943 206.305 207.436 206.044 207.23C205.473 206.781 204.651 206.795 203.694 207.269ZM39.9742 208.294C39.9054 208.363 40.0977 208.524 40.4017 208.652C40.8087 208.823 40.9544 209.006 40.9544 209.346C40.9544 209.599 39.9239 211.876 38.6643 214.406C37.4048 216.934 36.3743 219.189 36.3743 219.415C36.3743 220.591 38.9569 221.704 39.7212 220.857C39.8803 220.68 40.8324 218.832 41.8371 216.75L43.6636 212.964L44.6962 212.835C46.4542 212.615 47.5498 213.05 47.5498 213.969C47.5498 214.633 47.9962 214.481 48.5636 213.623C49.1812 212.69 49.218 211.954 48.6743 211.411C48.1265 210.863 46.8849 210.901 45.3907 211.51C44.2504 211.974 44.2407 211.975 44.3831 211.585C44.4622 211.369 44.5249 210.846 44.5223 210.423C44.5166 209.464 43.9868 208.85 42.8222 208.453C41.9756 208.164 40.2027 208.065 39.9742 208.294ZM224.438 211.171C223.549 212.061 223.672 213.629 224.757 215.248C225.47 216.31 226.151 216.623 226.874 216.218C227.195 216.039 227.425 215.703 227.538 215.253C227.688 214.65 227.636 214.412 227.125 213.377C225.788 210.665 225.325 210.285 224.438 211.171ZM200.755 213.297C200.097 213.698 199.978 214.032 200.494 214.032C201.101 214.032 201.625 214.802 201.625 215.695V216.511L200.114 216.508C198.366 216.505 197.183 216.87 195.88 217.815C193.192 219.766 193.079 223.532 195.638 225.891C196.09 226.307 196.793 226.748 197.201 226.87L197.942 227.092L197.568 227.825C197.108 228.727 197.072 229.87 197.478 230.656C197.782 231.244 198.596 231.804 199.146 231.804C199.36 231.804 199.269 232.042 198.789 232.74C197.566 234.518 198.058 235.975 199.941 236.156C201.81 236.336 205.492 235.007 207.452 233.447C209.209 232.048 209.845 230.211 209.08 228.749C208.288 227.236 206.715 226.912 203.913 227.686C199.759 228.833 199.612 228.864 199.141 228.685C198.575 228.47 198.404 228.061 198.653 227.514C198.808 227.175 199.035 227.075 199.843 226.992C200.902 226.882 202.32 226.258 203.211 225.508C203.507 225.259 203.992 224.615 204.29 224.078C204.755 223.239 204.831 222.907 204.831 221.723C204.831 220.535 204.748 220.176 204.228 219.119C203.861 218.373 203.394 217.734 203.037 217.487C202.714 217.264 202.418 217.058 202.379 217.028C202.34 216.999 202.484 216.565 202.7 216.065C203.705 213.726 202.609 212.166 200.755 213.297ZM50.5545 213.465C48.7074 214.304 48.4187 216.252 49.6216 219.76C50.5954 222.6 50.479 223.794 49.1889 224.203C48.1653 224.528 46.5685 223.629 46.0816 222.454C45.9546 222.147 45.7589 221.928 45.6468 221.966C45.1241 222.145 45.9465 223.93 47.0304 224.97C48.4374 226.319 50.8993 226.798 52.4047 226.015C52.8078 225.806 53.3849 225.27 53.6871 224.826C54.1811 224.099 54.2357 223.878 54.225 222.643C54.2148 221.42 54.1089 221.015 53.2632 218.962C52.2706 216.551 52.1759 216.1 52.5238 215.44C52.8147 214.887 53.0346 214.771 53.7978 214.767C54.2474 214.766 54.6127 214.908 54.9428 215.214C55.5833 215.808 55.5547 216.013 54.7864 216.334C54.0187 216.655 53.9097 217.327 54.5524 217.777C55.1506 218.196 55.7174 218.126 56.147 217.58C57.2089 216.23 55.7975 214.116 53.3491 213.389C52.1446 213.031 51.4693 213.049 50.5545 213.465ZM165.442 215.512C164.016 215.66 163.179 216.029 162.18 216.95C161.173 217.878 160.42 219.5 160.184 221.249C160.036 222.353 160.091 223.122 160.551 226.307C160.849 228.373 161.041 230.115 160.978 230.179C160.778 230.38 156.516 230.921 156.377 230.763C156.305 230.68 156.015 228.892 155.733 226.789C155.094 222.035 155.07 221.993 153.037 222.02C149.952 222.061 146.508 223.899 145.546 226.018C145.1 227 145.094 228.592 145.533 229.411C146.44 231.102 149.154 231.071 149.869 229.362C150.185 228.604 150.024 227.822 149.477 227.464C149.067 227.195 148.996 227.207 148.346 227.658C147.964 227.923 147.473 228.139 147.256 228.139C146.421 228.139 146.206 226.588 146.898 225.556C147.4 224.805 148.806 223.829 149.82 223.525C150.964 223.182 151.089 223.454 151.668 227.523C152.282 231.834 152.284 231.621 151.633 231.621C151.344 231.621 150.849 231.672 150.534 231.735C150.05 231.832 149.961 231.932 149.961 232.385C149.961 232.964 149.915 232.959 151.832 232.603C152.427 232.492 152.346 232.197 152.976 236.751C153.713 242.082 153.569 243.507 152.178 244.677C150.878 245.771 149.273 245.786 148.332 244.715C147.503 243.771 146.847 243.95 146.847 245.119C146.847 246.181 148.237 246.624 150.469 246.273C154.412 245.654 157.003 243.418 157.392 240.299C157.474 239.648 157.348 238.181 157.005 235.753C156.726 233.782 156.554 232.112 156.623 232.043C156.868 231.798 161.169 231.307 161.237 231.516C161.273 231.624 161.548 233.417 161.849 235.501C162.15 237.585 162.522 239.532 162.674 239.827C163.391 241.213 166.02 241.082 168.056 239.557C168.804 238.998 168.668 238.7 167.826 239.052C167.012 239.392 166.866 239.384 166.655 238.99C166.487 238.675 165.296 230.881 165.4 230.777C165.428 230.749 165.976 230.641 166.616 230.538C167.257 230.435 167.819 230.313 167.865 230.267C167.911 230.22 167.892 230.004 167.823 229.785C167.704 229.411 167.623 229.396 166.432 229.515C165.737 229.585 165.167 229.603 165.167 229.555C165.167 229.507 164.919 227.706 164.616 225.552C163.676 218.878 163.695 217.427 164.739 216.607C165.515 215.996 166.328 216.111 167.253 216.963C168.176 217.814 168.587 217.882 168.836 217.226C169.304 215.996 167.848 215.261 165.442 215.512ZM80.2918 217.347C79.2463 217.593 78.6607 217.951 77.8272 218.855C77.3459 219.378 76.9657 220.029 76.7833 220.644C76.2084 222.579 76.4244 223.468 78.5153 227.773C80.4545 231.765 80.848 233.095 80.5355 234.601C80.1273 236.567 78.804 237.789 77.2693 237.616C75.6615 237.434 75.0589 236.53 75.0408 234.272C75.0293 232.825 74.7167 232.17 74.0372 232.17C73.0014 232.17 72.1736 233.46 72.3284 234.833C72.5915 237.167 75.3671 238.942 78.8253 238.987C80.5674 239.009 81.7734 238.643 82.8952 237.751C83.9451 236.916 84.4561 236.147 84.8414 234.822C85.4674 232.668 85.0306 231.038 82.6345 226.582C81.2223 223.956 80.7092 222.639 80.711 221.648C80.7139 219.954 81.695 218.612 82.9307 218.612C83.4585 218.612 83.7811 218.735 84.1074 219.062C84.5086 219.463 84.5572 219.667 84.5572 220.951C84.5572 222.57 84.7814 223.055 85.5306 223.055C86.2742 223.055 86.9026 222.542 87.1124 221.763C87.6125 219.906 86.0399 218.173 83.1768 217.427C81.9909 217.118 81.3377 217.1 80.2918 217.347ZM60.9846 218.218C58.1376 219.202 56.1998 222.225 56.3859 225.391C56.52 227.671 57.7279 229.443 59.7934 230.389C61.1057 230.991 63.7933 230.964 65.0459 230.338C65.5497 230.086 65.9329 229.798 65.8978 229.697C65.8624 229.596 65.7387 229.545 65.623 229.583C63.9628 230.132 62.7585 229.938 61.6569 228.942C60.6999 228.078 60.3415 227.082 60.4106 225.48L60.4657 224.204L63.4886 223.636C67.2126 222.936 67.2102 222.937 67.8055 222.229C68.2199 221.737 68.2774 221.53 68.1975 220.819C68.1191 220.123 67.9707 219.866 67.2934 219.253C66.8479 218.85 66.0773 218.376 65.5814 218.199C64.3957 217.776 62.2377 217.785 60.9846 218.218ZM197.495 218.329C196.924 218.9 196.906 219.773 197.433 221.479C198.207 223.988 199.419 225.758 200.365 225.758C200.564 225.758 200.928 225.555 201.175 225.308C201.975 224.509 201.706 222.464 200.469 219.927C199.525 217.99 198.425 217.399 197.495 218.329ZM63.1484 219.231C62.911 219.363 62.4702 219.834 62.1688 220.278C61.5802 221.145 60.6891 223.019 60.8083 223.138C60.9014 223.231 63.2178 222.853 63.9736 222.621C64.6536 222.412 65.0405 221.649 65.0437 220.509C65.0473 219.224 64.1965 218.65 63.1484 219.231ZM189.293 220.147C188.953 220.488 188.466 221.287 188.211 221.924L187.748 223.081L187.448 222.501C186.94 221.517 186.442 221.177 185.514 221.179C184.506 221.181 182.99 221.981 182.385 222.831C181.984 223.395 182.016 223.822 182.428 223.409C182.782 223.056 183.456 223.156 183.692 223.598C183.811 223.821 184.555 226.092 185.345 228.644C186.135 231.197 186.864 233.441 186.966 233.631C187.316 234.285 188.57 234.321 189.751 233.71C190.826 233.154 190.837 233.252 189.082 227.61C187.891 223.782 187.886 223.89 189.327 222.621C190.206 221.847 191.123 221.671 191.555 222.193C191.931 222.645 192.14 222.221 192 221.289C191.729 219.476 190.488 218.953 189.293 220.147ZM107.641 221.482C105.176 221.922 103.704 223.389 103.348 225.758C103.057 227.696 103.117 227.601 102.268 227.486C101.848 227.43 101.318 227.346 101.091 227.3C100.753 227.231 100.679 227.297 100.679 227.669C100.679 228.086 100.765 228.131 101.778 228.246C102.749 228.355 102.878 228.417 102.878 228.77C102.878 229.671 101.417 240.229 101.139 241.335C100.489 243.921 99.3666 245.179 97.7067 245.179C96.7138 245.179 96.1451 244.758 95.5006 243.547C95.1974 242.978 95.1518 242.956 94.7778 243.204C93.6718 243.939 93.8704 244.774 95.3207 245.486C96.2735 245.954 96.5575 246.003 98.3009 246.003C100.098 246.003 100.308 245.964 101.415 245.418C103.361 244.459 104.539 242.92 105.157 240.529C105.31 239.936 105.729 237.174 106.089 234.391C106.448 231.608 106.772 229.241 106.808 229.132C106.852 228.999 107.196 228.979 107.853 229.073C109.535 229.312 109.689 229.29 109.623 228.827C109.571 228.462 109.417 228.397 108.282 228.261C107.577 228.176 106.978 228.085 106.951 228.058C106.796 227.907 107.514 223.931 107.794 223.386C108.655 221.716 110.383 222.058 111.221 224.063C111.543 224.833 112.109 224.857 112.491 224.118C112.887 223.352 112.844 223.104 112.227 222.584C111.328 221.828 108.93 221.251 107.641 221.482ZM177.379 223.268C176.992 223.411 176.471 223.719 176.223 223.953C175.266 224.851 174.667 226.337 175.602 225.49C175.994 225.135 176.47 225.216 176.643 225.666C176.703 225.822 177.143 227.576 177.621 229.564C178.585 233.575 178.587 233.523 177.436 234.689C176.784 235.351 176.18 235.449 175.747 234.964C175.59 234.788 175.006 232.747 174.45 230.43C173.894 228.112 173.351 225.985 173.243 225.703C173.12 225.379 172.801 225.087 172.376 224.91C171.109 224.38 169.329 225.175 168.506 226.64C168.085 227.389 168.157 227.85 168.596 227.222C168.892 226.801 169.25 226.753 169.535 227.096C169.644 227.228 170.196 229.269 170.762 231.631C171.327 233.993 171.956 236.196 172.16 236.526C172.691 237.384 173.451 237.724 174.621 237.627C175.88 237.523 176.847 236.88 177.903 235.445L178.72 234.334L178.918 234.855C179.213 235.63 179.618 235.997 180.325 236.13C181.585 236.366 183.038 235.599 183.865 234.26C184.315 233.532 184.217 233.233 183.686 233.714C182.882 234.442 182.722 234.151 181.778 230.246C180.289 224.092 180.185 223.748 179.729 223.448C179.115 223.046 178.177 222.974 177.379 223.268ZM134.664 224.688C133.659 225.24 133.386 226.281 134.031 227.101C135.093 228.451 137.687 227.79 137.687 226.17C137.687 225.225 136.857 224.473 135.823 224.481C135.387 224.484 134.865 224.577 134.664 224.688ZM91.3862 225.924C90.0589 226.265 89.2372 227.202 89.2372 228.373C89.2372 229.621 90.5084 230.366 91.4781 229.686C92.0402 229.293 92.0001 228.555 91.3816 227.906L90.8778 227.378L91.3103 227.026C92.2952 226.224 94.3317 226.807 94.7958 228.024C95.0189 228.608 95.0122 228.787 94.7405 229.499C94.5705 229.944 94.2284 230.441 93.9805 230.604C93.7327 230.766 92.6858 231.071 91.6542 231.281C88.2284 231.978 87.1025 232.94 86.9702 235.283C86.8947 236.616 87.119 237.274 87.8833 237.962C89.0375 239.001 91.1872 239.021 92.6464 238.005C93.2761 237.567 93.5343 237.577 93.5343 238.04C93.5343 238.991 94.7025 239.87 95.9559 239.861C96.8667 239.855 98.9379 238.796 98.6336 238.491C98.5669 238.424 98.3461 238.459 98.1433 238.567C97.6489 238.832 97.1983 238.633 97.1983 238.151C97.1983 237.934 97.3642 236.892 97.567 235.834C98.5449 230.732 98.6715 229.764 98.4625 228.988C98.1796 227.937 97.0067 226.827 95.6411 226.318C94.4505 225.874 92.339 225.679 91.3862 225.924ZM112.737 228.967C111.122 229.486 110.238 230.922 110.76 232.18C111.289 233.459 112.92 233.411 113.387 232.103C113.475 231.854 113.326 231.587 112.838 231.127L112.167 230.494L112.545 230.116C112.79 229.871 113.236 229.71 113.809 229.66C115.029 229.553 115.888 230.034 116.237 231.019C116.482 231.708 116.47 231.81 116.054 232.649L115.61 233.544L113.504 234.279C110.043 235.486 109.325 236.15 109.152 238.304C108.973 240.541 110.151 241.881 112.298 241.881C113.483 241.881 114.251 241.606 115.123 240.871C115.621 240.451 115.765 240.403 115.899 240.614C115.989 240.756 116.064 240.965 116.066 241.077C116.071 241.49 117.026 242.222 117.709 242.337C118.103 242.404 118.739 242.358 119.154 242.234C120.01 241.978 121.255 241.022 121.088 240.751C121.012 240.629 120.906 240.634 120.774 240.765C120.498 241.042 119.791 241.015 119.679 240.724C119.629 240.592 119.716 238.675 119.874 236.464C120.032 234.253 120.099 232.115 120.023 231.712C119.851 230.8 118.512 229.437 117.443 229.088C116.286 228.71 113.74 228.644 112.737 228.967ZM134.966 229.262C134.13 229.416 132.557 230.236 132.557 230.517C132.557 230.608 132.843 230.635 133.192 230.578C133.736 230.49 133.853 230.538 134.01 230.911C134.112 231.15 134.272 233.654 134.366 236.476C134.461 239.297 134.592 241.739 134.657 241.902C135.03 242.832 137.735 242.818 138.236 241.882C138.346 241.675 138.346 239.857 138.235 236.909C138.139 234.353 138.059 231.83 138.057 231.303C138.05 229.628 136.943 228.898 134.966 229.262ZM123.735 229.511C122.827 229.845 122.095 230.342 122.218 230.542C122.277 230.636 122.452 230.638 122.629 230.547C122.974 230.369 123.416 230.472 123.627 230.778C123.704 230.889 123.757 233.449 123.746 236.468C123.725 241.925 123.727 241.958 124.131 242.285C124.708 242.753 126.498 242.74 127.086 242.264C127.516 241.916 127.519 241.884 127.574 237.547C127.637 232.61 127.598 232.744 129.189 231.996C130.447 231.405 131.385 231.555 131.693 232.396C131.882 232.91 132.26 232.148 132.336 231.103C132.408 230.107 132.377 230.001 131.911 229.634C131.634 229.417 131.281 229.239 131.124 229.239C130.476 229.239 129.223 230.052 128.573 230.896C128.195 231.387 127.834 231.792 127.772 231.796C127.71 231.8 127.612 231.453 127.554 231.025C127.398 229.862 126.623 229.235 125.363 229.252C124.836 229.259 124.103 229.375 123.735 229.511ZM202.55 231.14C200.477 231.727 200.447 231.743 200.127 232.456C199.703 233.401 199.712 233.85 200.167 234.429C200.702 235.109 201.487 235.192 202.999 234.729C205.293 234.027 206.938 232.738 206.938 231.643C206.938 230.37 205.748 230.234 202.55 231.14ZM92.1395 232.153C91.067 232.807 90.2851 235.358 90.7862 236.567C91.1828 237.525 92.4883 237.525 93.1924 236.567C93.3776 236.315 93.6953 235.296 93.8981 234.303C94.3376 232.151 94.3272 232.44 93.9793 232.092C93.592 231.704 92.8335 231.73 92.1395 232.153ZM113.781 235.337C112.601 236.517 112.468 239.311 113.554 240.116C114.053 240.486 114.074 240.487 114.689 240.156C115.532 239.702 115.818 238.991 115.959 237.007C116.109 234.901 116.047 234.735 115.115 234.735C114.532 234.735 114.26 234.858 113.781 235.337Z" fill="#EDE5DD"/>
</svg>
