<svg width="128" height="14" viewBox="0 0 128 14" fill="none" xmlns="http://www.w3.org/2000/svg">
<g clip-path="url(#clip0_23677_35)">
<path d="M14.3087 13.8964C14.2122 13.8964 14.0537 13.8895 13.8331 13.8757C13.6125 13.8619 13.3851 13.8481 13.1507 13.8343C12.9164 13.8205 12.689 13.8067 12.4684 13.7929C12.2478 13.7791 12.0893 13.7722 11.9928 13.7722H10.7729C10.6764 13.7722 10.5178 13.7791 10.2973 13.7929C10.0767 13.8067 9.84927 13.8205 9.61493 13.8343C9.38059 13.8481 9.15314 13.8619 8.93258 13.8757C8.71202 13.8895 8.5535 13.8964 8.457 13.8964L8.41565 13.8136L8.47768 13.0266L8.56039 12.9438C8.78095 12.9438 8.98772 12.9369 9.18071 12.9231C9.3737 12.8955 9.53911 12.8333 9.67696 12.7367C9.80103 12.64 9.89752 12.5158 9.96644 12.3639C10.0354 12.212 10.1043 11.9428 10.1732 11.5562C10.187 11.4596 10.1939 11.3491 10.1939 11.2249C10.2077 11.0868 10.2146 10.9211 10.2146 10.7278C10.2284 10.5345 10.2352 10.2998 10.2352 10.0237C10.2352 9.74753 10.2352 9.40237 10.2352 8.98816V7.33136H4.11478V8.57396C4.11478 9.071 4.11478 9.4783 4.11478 9.79586C4.11478 10.0996 4.11478 10.355 4.11478 10.5621C4.12856 10.7692 4.13545 10.9487 4.13545 11.1006C4.14924 11.2387 4.16302 11.3905 4.17681 11.5562C4.20438 11.9428 4.26641 12.212 4.3629 12.3639C4.4594 12.5158 4.56278 12.64 4.67306 12.7367C4.79713 12.8333 4.95565 12.8955 5.14864 12.9231C5.35541 12.9369 5.56908 12.9438 5.78964 12.9438L5.87234 13.0266L5.93438 13.8136L5.89302 13.8964C5.79653 13.8964 5.638 13.8895 5.41745 13.8757C5.19689 13.8619 4.96944 13.8481 4.7351 13.8343C4.50075 13.8205 4.2733 13.8067 4.05274 13.7929C3.83219 13.7791 3.67366 13.7722 3.57717 13.7722H2.35721C2.26071 13.7722 2.10219 13.7791 1.88163 13.7929C1.66107 13.8067 1.43362 13.8205 1.19928 13.8343C0.964939 13.8481 0.737489 13.8619 0.516932 13.8757C0.296374 13.8895 0.137848 13.8964 0.0413545 13.8964L0 13.8136L0.0620318 13.0266L0.165418 12.9438C0.385976 12.9438 0.592748 12.9369 0.785736 12.9231C0.978724 12.8955 1.13725 12.8333 1.26131 12.7367C1.37159 12.64 1.47498 12.5158 1.57147 12.3639C1.68175 12.212 1.75068 11.9428 1.77825 11.5562C1.77825 11.4596 1.77825 11.3491 1.77825 11.2249C1.79203 11.0868 1.79892 10.9211 1.79892 10.7278C1.81271 10.5345 1.8196 10.2998 1.8196 10.0237C1.8196 9.74753 1.8196 9.40237 1.8196 8.98816V5.61243C1.8196 5.12919 1.8196 4.72189 1.8196 4.39053C1.8196 4.05917 1.81271 3.77613 1.79892 3.54142C1.79892 3.30671 1.79203 3.10651 1.77825 2.94083C1.77825 2.77515 1.77135 2.60947 1.75757 2.44379C1.73 2.08481 1.66797 1.82248 1.57147 1.6568C1.47498 1.49112 1.37159 1.35996 1.26131 1.26331C1.13725 1.16667 0.978724 1.11144 0.785736 1.09763C0.592748 1.07002 0.385976 1.05621 0.165418 1.05621L0.0620318 0.973372L0 0.186391L0.0413545 0.10355C0.137848 0.10355 0.296374 0.110453 0.516932 0.12426C0.737489 0.138066 0.964939 0.151873 1.19928 0.165681C1.43362 0.179487 1.66107 0.193294 1.88163 0.2071C2.10219 0.220907 2.26071 0.22781 2.35721 0.22781H3.57717C3.67366 0.22781 3.83219 0.220907 4.05274 0.2071C4.2733 0.193294 4.50075 0.179487 4.7351 0.165681C4.96944 0.151873 5.19689 0.138066 5.41745 0.12426C5.638 0.110453 5.79653 0.10355 5.89302 0.10355L5.93438 0.186391L5.87234 0.973372L5.78964 1.05621C5.59665 1.05621 5.38988 1.07002 5.16932 1.09763C4.96254 1.11144 4.79713 1.16667 4.67306 1.26331C4.56278 1.35996 4.45251 1.48422 4.34223 1.63609C4.24573 1.78797 4.19059 2.0572 4.17681 2.44379C4.16302 2.63708 4.14924 2.81657 4.13545 2.98225C4.13545 3.14793 4.12856 3.34122 4.11478 3.56213C4.11478 3.78304 4.11478 4.05227 4.11478 4.36982C4.11478 4.68738 4.11478 5.09467 4.11478 5.59172V5.79882H10.2352V5.61243C10.2352 5.12919 10.2352 4.72189 10.2352 4.39053C10.2352 4.05917 10.2284 3.77613 10.2146 3.54142C10.2146 3.30671 10.2077 3.10651 10.1939 2.94083C10.1939 2.77515 10.187 2.60947 10.1732 2.44379C10.1456 2.0572 10.0836 1.78797 9.98712 1.63609C9.89063 1.48422 9.78724 1.35996 9.67696 1.26331C9.5529 1.16667 9.38748 1.11144 9.18071 1.09763C8.98772 1.07002 8.78095 1.05621 8.56039 1.05621L8.47768 0.973372L8.41565 0.186391L8.457 0.10355C8.5535 0.10355 8.71202 0.110453 8.93258 0.12426C9.15314 0.138066 9.38059 0.151873 9.61493 0.165681C9.84927 0.179487 10.0767 0.193294 10.2973 0.2071C10.5178 0.220907 10.6764 0.22781 10.7729 0.22781H11.9928C12.0893 0.22781 12.2478 0.220907 12.4684 0.2071C12.689 0.193294 12.9164 0.179487 13.1507 0.165681C13.3851 0.151873 13.6125 0.138066 13.8331 0.12426C14.0537 0.110453 14.2122 0.10355 14.3087 0.10355L14.35 0.186391L14.288 0.973372L14.1846 1.05621C13.964 1.05621 13.7504 1.07002 13.5436 1.09763C13.3506 1.11144 13.199 1.16667 13.0887 1.26331C12.9784 1.35996 12.875 1.48422 12.7786 1.63609C12.6958 1.78797 12.6269 2.0572 12.5718 2.44379C12.558 2.63708 12.5442 2.81657 12.5304 2.98225C12.5304 3.14793 12.5304 3.34122 12.5304 3.56213C12.5304 3.78304 12.5304 4.05227 12.5304 4.36982C12.5304 4.68738 12.5304 5.09467 12.5304 5.59172V8.57396C12.5304 9.071 12.5304 9.4783 12.5304 9.79586C12.5304 10.0996 12.5304 10.355 12.5304 10.5621C12.5304 10.7692 12.5304 10.9487 12.5304 11.1006C12.5442 11.2387 12.558 11.3905 12.5718 11.5562C12.5993 11.9428 12.6614 12.212 12.7579 12.3639C12.8682 12.5158 12.9784 12.64 13.0887 12.7367C13.2128 12.8333 13.3713 12.8955 13.5643 12.9231C13.7573 12.9369 13.964 12.9438 14.1846 12.9438L14.288 13.0266L14.35 13.8136L14.3087 13.8964Z" fill="#433E3C"/>
<path d="M23.5013 0C24.5628 0 25.507 0.186391 26.3341 0.559172C27.1612 0.931953 27.8573 1.4428 28.4225 2.09172C28.9877 2.72682 29.415 3.46548 29.7045 4.30769C30.0078 5.1499 30.1594 6.03353 30.1594 6.95858C30.1594 7.86982 30.0147 8.75345 29.7252 9.60947C29.4357 10.4517 29.0015 11.1972 28.4225 11.8462C27.8573 12.4951 27.1474 13.0197 26.2928 13.4201C25.4519 13.8067 24.4732 14 23.3566 14C22.2814 14 21.3371 13.8136 20.5238 13.4408C19.7105 13.068 19.0282 12.571 18.4768 11.9497C17.9391 11.3146 17.5325 10.5828 17.2568 9.75444C16.9811 8.91223 16.8433 8.0286 16.8433 7.10355C16.8433 6.12327 16.9949 5.20513 17.2982 4.34911C17.6014 3.47929 18.0356 2.72682 18.6008 2.09172C19.166 1.4428 19.8621 0.931953 20.6892 0.559172C21.5163 0.186391 22.4537 0 23.5013 0ZM23.4807 12.2811C24.1561 12.2811 24.7558 12.143 25.2796 11.8669C25.8172 11.5769 26.2652 11.1972 26.6236 10.7278C26.982 10.2446 27.2577 9.6854 27.4507 9.05029C27.6437 8.40138 27.7402 7.71104 27.7402 6.97929C27.7402 6.23373 27.6368 5.54339 27.43 4.90828C27.237 4.25937 26.9475 3.7002 26.5616 3.23077C26.1894 2.76134 25.7345 2.39546 25.1969 2.13314C24.6593 1.857 24.0527 1.71893 23.3773 1.71893C22.7156 1.71893 22.1297 1.8501 21.6197 2.11243C21.1097 2.37475 20.6823 2.74063 20.3377 3.21006C19.9931 3.67949 19.7312 4.23866 19.552 4.88757C19.3728 5.52268 19.2832 6.21302 19.2832 6.95858C19.2832 7.78698 19.3866 8.53254 19.5933 9.19526C19.8001 9.84418 20.0896 10.3964 20.4618 10.8521C20.834 11.3077 21.2751 11.6598 21.7851 11.9083C22.2952 12.1568 22.8603 12.2811 23.4807 12.2811Z" fill="#433E3C"/>
<path d="M38.5025 13.8964C38.3923 13.8826 38.2337 13.8688 38.027 13.855C37.834 13.8412 37.6203 13.8274 37.386 13.8136C37.1654 13.7998 36.9448 13.786 36.7243 13.7722C36.5175 13.7722 36.3383 13.7722 36.1867 13.7722H34.9667C34.8013 13.7722 34.6083 13.7722 34.3878 13.7722C34.1672 13.786 33.9466 13.7998 33.7261 13.8136C33.5055 13.8274 33.2919 13.8412 33.0851 13.855C32.8921 13.8688 32.7474 13.8826 32.6509 13.8964L32.6095 13.8136L32.6715 13.0266L32.7749 12.9438C33.2987 12.9438 33.6572 12.8817 33.8501 12.7574C34.1396 12.5641 34.3188 12.1637 34.3878 11.5562C34.4015 11.3215 34.4084 10.9625 34.4084 10.4793C34.4222 9.98225 34.4291 9.48521 34.4291 8.98816V4.43195C34.4291 3.94872 34.4222 3.56903 34.4084 3.2929C34.3946 3.00296 34.374 2.71992 34.3464 2.44379C34.2913 2.07101 34.2292 1.80178 34.1603 1.63609C34.1052 1.47041 34.0156 1.33925 33.8915 1.2426C33.7812 1.17357 33.6434 1.12525 33.478 1.09763C33.3263 1.07002 33.092 1.05621 32.7749 1.05621L32.6715 0.973372L32.6095 0.186391L32.6509 0.10355C33.0093 0.144971 33.3608 0.179487 33.7054 0.2071C34.0638 0.220907 34.3464 0.22781 34.5532 0.22781H36.1246C36.4417 0.22781 36.8001 0.220907 37.1999 0.2071C37.6134 0.193294 37.9718 0.186391 38.2751 0.186391C39.9155 0.186391 41.1561 0.497042 41.997 1.11834C42.8379 1.72584 43.2583 2.63708 43.2583 3.85207C43.2583 4.72189 43.0033 5.51578 42.4932 6.23373C41.997 6.93787 41.2526 7.55227 40.2601 8.07692C40.7288 8.78106 41.1217 9.35404 41.4387 9.79586C41.7695 10.2377 42.0521 10.5897 42.2865 10.8521C42.6035 11.2249 42.8999 11.5355 43.1756 11.784C43.4513 12.0325 43.7201 12.2396 43.982 12.4053C44.2577 12.571 44.5403 12.6953 44.8298 12.7781C45.1193 12.8609 45.4432 12.9162 45.8016 12.9438L45.9257 13.0266L45.967 13.8136L45.9257 13.8964C45.4018 13.9241 44.9469 13.9448 44.561 13.9586C44.175 13.9862 43.8924 14 43.7132 14C42.9826 14 42.3278 13.7998 41.7489 13.3994C41.1837 12.9852 40.5771 12.288 39.9293 11.3077C39.7776 11.0868 39.6122 10.8383 39.433 10.5621C39.2676 10.286 39.0953 10.0168 38.9161 9.75444C38.7507 9.4783 38.5921 9.21598 38.4405 8.96745C38.2889 8.71893 38.1648 8.50493 38.0683 8.32544H36.7243C36.7243 8.79487 36.7243 9.20217 36.7243 9.54734C36.7243 9.8787 36.7243 10.1686 36.7243 10.4172C36.7381 10.6657 36.7519 10.8797 36.7656 11.0592C36.7794 11.2387 36.7932 11.4043 36.807 11.5562C36.8621 12.1913 37.0138 12.5917 37.2619 12.7574C37.3584 12.8264 37.4825 12.8748 37.6341 12.9024C37.7857 12.93 38.0407 12.9438 38.3991 12.9438L38.4819 13.0266L38.5439 13.8136L38.5025 13.8964ZM37.7788 6.7929C38.7851 6.7929 39.5709 6.55128 40.136 6.06805C40.715 5.58481 41.0045 4.91519 41.0045 4.05917C41.0045 3.286 40.7495 2.72682 40.2394 2.38166C39.7294 2.02268 38.9161 1.84319 37.7995 1.84319H36.8277C36.7863 2.39546 36.7587 2.82347 36.745 3.12722C36.7312 3.43097 36.7243 3.72091 36.7243 3.99704V6.02663C36.7243 6.31657 36.7587 6.51676 36.8277 6.62722C36.8966 6.73767 37.0276 6.7929 37.2205 6.7929H37.7788Z" fill="#433E3C"/>
<path d="M49.6902 3.35503C49.6902 3.714 49.7867 4.01775 49.9797 4.26627C50.1727 4.51479 50.4346 4.7357 50.7654 4.92899C51.0963 5.10848 51.4823 5.28106 51.9234 5.44674C52.3645 5.61243 52.8332 5.78501 53.3294 5.9645C53.8257 6.15779 54.3013 6.36489 54.7562 6.5858C55.2111 6.7929 55.6108 7.05523 55.9554 7.37278C56.3138 7.67653 56.5964 8.04241 56.8032 8.47041C57.0238 8.88461 57.134 9.38856 57.134 9.98225C57.134 10.5897 57.0169 11.142 56.7825 11.6391C56.5482 12.1223 56.2105 12.5434 55.7693 12.9024C55.342 13.2475 54.8113 13.5168 54.1772 13.7101C53.5569 13.9034 52.8607 14 52.0888 14C51.2617 14 50.4346 13.8964 49.6075 13.6893C48.7804 13.4822 48.0429 13.1992 47.395 12.8402L47.3123 12.571L47.7879 9.79586H48.7184L48.8218 9.92012C48.9045 10.8728 49.2215 11.5493 49.7729 11.9497C50.3381 12.3501 51.1032 12.5503 52.0681 12.5503C53.0193 12.5503 53.7085 12.3846 54.1358 12.0533C54.5632 11.7081 54.7768 11.2041 54.7768 10.5414C54.7768 10.1134 54.6872 9.76134 54.508 9.48521C54.3288 9.20907 54.0738 8.97436 53.743 8.78106C53.4259 8.58777 53.0399 8.41519 52.585 8.26331C52.1301 8.11144 51.627 7.93195 51.0756 7.72485C50.5793 7.54536 50.1176 7.35207 49.6902 7.14497C49.2629 6.92406 48.8907 6.66864 48.5737 6.3787C48.2704 6.07495 48.0291 5.71598 47.8499 5.30177C47.6707 4.88757 47.5811 4.39053 47.5811 3.81065C47.5811 2.59566 47.974 1.6568 48.7597 0.994082C49.5593 0.331361 50.7723 0 52.3989 0C53.1433 0 53.8395 0.0897436 54.4874 0.269231C55.1352 0.434911 55.6797 0.635108 56.1209 0.869822L56.2036 1.09763L55.8727 3.45858H54.8802L54.7768 3.35503C54.6941 2.77515 54.446 2.32643 54.0324 2.00888C53.6189 1.69132 53.0399 1.53254 52.2956 1.53254C51.4685 1.53254 50.8275 1.69822 50.3726 2.02959C49.9177 2.36095 49.6902 2.80276 49.6902 3.35503Z" fill="#433E3C"/>
<path d="M65.5201 0.22781C65.7131 0.22781 65.9957 0.22781 66.3679 0.22781C66.7539 0.214004 67.1467 0.200197 67.5465 0.186391C67.9463 0.172584 68.3047 0.165681 68.6217 0.165681C68.9388 0.151873 69.1318 0.14497 69.2007 0.14497L69.3247 0.352071L69.2214 3.02367H68.2909L68.2082 2.94083C68.1806 2.6785 68.1392 2.4714 68.0841 2.31953C68.0428 2.16765 67.9187 2.0572 67.7119 1.98817C67.5051 1.91913 67.1812 1.87771 66.7401 1.8639C66.3128 1.8501 65.7131 1.84319 64.9412 1.84319H63.7626L63.7419 2.02959C63.7281 2.22288 63.7143 2.40237 63.7005 2.56805C63.7005 2.73373 63.6936 2.92702 63.6799 3.14793C63.6799 3.36884 63.6799 3.63807 63.6799 3.95562C63.6799 4.27317 63.6799 4.68047 63.6799 5.17751V5.88166C64.0107 5.86785 64.3277 5.86785 64.631 5.88166C64.9343 5.88166 65.2169 5.87475 65.4788 5.86095C65.7407 5.84714 65.9612 5.82643 66.1404 5.79882C66.3334 5.7574 66.4713 5.69527 66.554 5.61243C66.6918 5.47436 66.7608 5.28106 66.7608 5.03254L66.8642 4.92899L67.6292 4.88757L67.7119 4.92899C67.6844 5.24655 67.6568 5.52268 67.6292 5.7574C67.6154 5.99211 67.6085 6.26134 67.6085 6.56509C67.6085 6.89645 67.6154 7.2071 67.6292 7.49704C67.6568 7.77317 67.6844 8.07692 67.7119 8.40828L67.6292 8.4497L66.8435 8.40828L66.7608 8.34615C66.7608 8.00099 66.6987 7.74556 66.5747 7.57988C66.4644 7.42801 66.1473 7.34517 65.6235 7.33136C65.1135 7.30375 64.5414 7.28994 63.9073 7.28994H63.6799V8.98816C63.6799 9.38856 63.6799 9.71992 63.6799 9.98225C63.6936 10.2446 63.7005 10.4724 63.7005 10.6657C63.7143 10.8452 63.7281 11.0178 63.7419 11.1834C63.7557 11.3491 63.7695 11.5424 63.7832 11.7633C63.797 12.0256 63.9349 12.1568 64.1968 12.1568H65.1273C65.913 12.1568 66.5264 12.143 66.9675 12.1154C67.4224 12.0878 67.7671 12.0256 68.0014 11.929C68.2357 11.8185 68.4012 11.6667 68.4977 11.4734C68.6079 11.2801 68.7044 11.0178 68.7871 10.6864L68.8699 10.6035H69.8417L69.4488 13.6479L69.2834 13.855C69.2145 13.855 69.0422 13.8481 68.7665 13.8343C68.5045 13.8343 68.2082 13.8274 67.8773 13.8136C67.5465 13.7998 67.2157 13.786 66.8848 13.7722C66.554 13.7722 66.2921 13.7722 66.0991 13.7722H61.9223C61.8258 13.7722 61.6673 13.7791 61.4467 13.7929C61.2262 13.8067 60.9987 13.8205 60.7644 13.8343C60.53 13.8481 60.3026 13.8619 60.082 13.8757C59.8615 13.8895 59.7029 13.8964 59.6064 13.8964L59.5651 13.8136L59.6271 13.0266L59.7305 12.9438C59.951 12.9438 60.1578 12.9369 60.3508 12.9231C60.5438 12.8955 60.7023 12.8333 60.8264 12.7367C60.9367 12.64 61.0401 12.5158 61.1365 12.3639C61.2468 12.212 61.3157 11.9428 61.3433 11.5562C61.3433 11.4596 61.3433 11.3491 61.3433 11.2249C61.3571 11.0868 61.364 10.9211 61.364 10.7278C61.3778 10.5345 61.3847 10.2998 61.3847 10.0237C61.3847 9.74753 61.3847 9.40237 61.3847 8.98816V5.61243C61.3847 5.12919 61.3847 4.72189 61.3847 4.39053C61.3847 4.05917 61.3847 3.77613 61.3847 3.54142C61.3847 3.30671 61.3778 3.10651 61.364 2.94083C61.364 2.77515 61.3571 2.60947 61.3433 2.44379C61.3157 2.07101 61.2468 1.80178 61.1365 1.63609C61.0401 1.47041 60.9367 1.34615 60.8264 1.26331C60.7023 1.15286 60.5438 1.09073 60.3508 1.07692C60.1578 1.06312 59.951 1.05621 59.7305 1.05621L59.6271 0.973372L59.5651 0.186391L59.6064 0.10355C59.7029 0.10355 59.8615 0.110453 60.082 0.12426C60.3026 0.138066 60.5369 0.151873 60.785 0.165681C61.0469 0.179487 61.2951 0.193294 61.5294 0.2071C61.7775 0.220907 61.9774 0.22781 62.1291 0.22781H65.5201Z" fill="#433E3C"/>
<path d="M72.0582 9.31953L71.9134 8.49112C72.1616 8.04931 72.451 7.55917 72.7819 7.02071C73.1127 6.48225 73.4573 5.92998 73.8158 5.3639C74.1742 4.79783 74.5326 4.23866 74.891 3.68639C75.2632 3.13412 75.6009 2.62327 75.9042 2.15385C76.2212 1.68442 76.4969 1.27712 76.7312 0.931953C76.9794 0.586785 77.1655 0.338264 77.2895 0.186391L79.4606 0H79.6261L79.8742 0.434911C79.8466 0.628204 79.8259 0.869822 79.8122 1.15976C79.8122 1.4497 79.8053 1.67061 79.7915 1.82248C79.7777 2.04339 79.7639 2.25049 79.7501 2.44379C79.7501 2.63708 79.7432 2.86489 79.7294 3.12722C79.7294 3.38955 79.7294 3.7071 79.7294 4.07988C79.7294 4.45266 79.7294 4.92899 79.7294 5.50887V7.86982H81.487L81.5697 7.99408L81.3423 9.4645L81.1975 9.56805H79.7294C79.7294 9.84418 79.7294 10.0858 79.7294 10.2929C79.7294 10.4862 79.7294 10.6588 79.7294 10.8106C79.7432 10.9625 79.7501 11.1075 79.7501 11.2456C79.7639 11.3698 79.7846 11.5079 79.8122 11.6598C79.8397 11.9497 79.9018 12.1706 79.9983 12.3225C80.1085 12.4606 80.2188 12.5779 80.3291 12.6746C80.4394 12.7712 80.6255 12.8471 80.8874 12.9024C81.1631 12.9576 81.4043 12.9852 81.6111 12.9852L81.6938 13.0888L81.7351 13.7722L81.6938 13.855C81.5973 13.855 81.4526 13.8481 81.2596 13.8343C81.0666 13.8205 80.8598 13.8067 80.6393 13.7929C80.4325 13.7929 80.2326 13.786 80.0396 13.7722C79.8466 13.7722 79.7019 13.7722 79.6054 13.7722H77.6204C77.5239 13.7722 77.3653 13.7722 77.1448 13.7722C76.9242 13.786 76.6899 13.7929 76.4418 13.7929C76.2074 13.8067 75.98 13.8205 75.7594 13.8343C75.5389 13.8481 75.3803 13.855 75.2838 13.855L75.2632 13.7722L75.3459 13.068L75.4286 12.9852C75.5389 12.9852 75.6629 12.9783 75.8008 12.9645C75.9524 12.9507 76.0971 12.93 76.235 12.9024C76.3866 12.8748 76.5176 12.8471 76.6279 12.8195C76.7519 12.7781 76.8415 12.7298 76.8967 12.6746C77.0207 12.5779 77.131 12.4536 77.2275 12.3018C77.3378 12.1499 77.3929 11.9359 77.3929 11.6598C77.4205 11.3974 77.4412 11.1006 77.4549 10.7692C77.4687 10.4379 77.4756 10.0375 77.4756 9.56805H72.9473L72.0582 9.31953ZM77.4136 2.56805C77.2206 2.77515 76.9794 3.0858 76.6899 3.5C76.4004 3.9142 76.0971 4.36982 75.7801 4.86686C75.463 5.3639 75.1529 5.87475 74.8496 6.39941C74.5464 6.92406 74.2913 7.4142 74.0846 7.86982H77.4756V5.5503C77.4756 5.32939 77.4756 5.08777 77.4756 4.82544C77.4756 4.54931 77.4687 4.28008 77.4549 4.01775C77.4549 3.74162 77.4481 3.47929 77.4343 3.23077C77.4343 2.98225 77.4274 2.76134 77.4136 2.56805Z" fill="#A9A59D"/>
<path d="M93.1498 13.8964C93.0533 13.8964 92.8948 13.8895 92.6742 13.8757C92.4537 13.8619 92.2262 13.8481 91.9919 13.8343C91.7575 13.8205 91.5301 13.8067 91.3095 13.7929C91.089 13.7791 90.9304 13.7722 90.8339 13.7722H89.614C89.5175 13.7722 89.359 13.7791 89.1384 13.7929C88.9179 13.8067 88.6835 13.8205 88.4354 13.8343C88.201 13.8481 87.9736 13.8619 87.753 13.8757C87.5325 13.8895 87.374 13.8964 87.2775 13.8964L87.2568 13.8136L87.2981 13.0266L87.4015 12.9438C87.6083 12.9438 87.8082 12.9369 88.0012 12.9231C88.2079 12.8955 88.3733 12.8333 88.4974 12.7367C88.6215 12.64 88.7318 12.5158 88.8282 12.3639C88.9247 12.212 88.9868 11.9428 89.0144 11.5562C89.0281 11.4596 89.035 11.3491 89.035 11.2249C89.0488 11.0868 89.0557 10.9211 89.0557 10.7278C89.0695 10.5345 89.0764 10.2998 89.0764 10.0237C89.0764 9.74753 89.0764 9.40237 89.0764 8.98816V8.59467C89.0764 8.20809 89.0212 7.89743 88.911 7.66272C88.8007 7.4142 88.6904 7.19329 88.5801 7C88.1252 6.25444 87.6221 5.48126 87.0707 4.68047C86.5331 3.87968 85.9748 3.06509 85.3958 2.23669C85.2993 2.08481 85.1891 1.93984 85.065 1.80178C84.9409 1.6499 84.8306 1.53254 84.7341 1.4497C84.5825 1.32544 84.3964 1.2357 84.1759 1.18047C83.9691 1.12525 83.7279 1.08383 83.4522 1.05621L83.2867 0.973372V0.186391L83.3901 0.10355C83.7347 0.144971 84.0449 0.186391 84.3206 0.22781C84.5963 0.255424 84.8996 0.269231 85.2304 0.269231H86.9259C87.243 0.269231 87.6083 0.255424 88.0218 0.22781C88.4492 0.186391 88.8558 0.144971 89.2418 0.10355L89.3245 0.186391V0.973372L89.2418 1.05621C88.9661 1.07002 88.7249 1.09763 88.5181 1.13905C88.3113 1.16667 88.1459 1.22189 88.0218 1.30473C87.884 1.40138 87.8151 1.52564 87.8151 1.67751C87.8151 1.76035 87.8288 1.8432 87.8564 1.92604C87.8978 2.00888 87.9391 2.08481 87.9805 2.15385L90.4411 6.06805L92.7569 2.48521C92.8948 2.25049 92.9637 2.00888 92.9637 1.76035C92.9637 1.59467 92.9155 1.47041 92.819 1.38757C92.7225 1.30473 92.5984 1.2426 92.4468 1.20118C92.3089 1.15976 92.1504 1.13215 91.9712 1.11834C91.8058 1.10454 91.6473 1.07692 91.4956 1.0355L91.4129 0.952663V0.165681L91.4956 0.0828404C91.8954 0.151874 92.2262 0.193294 92.4881 0.2071C92.75 0.2071 93.0533 0.2071 93.3979 0.2071H95.2175C95.5484 0.2071 95.8516 0.200197 96.1273 0.186391C96.403 0.172584 96.7339 0.138067 97.1198 0.0828404L97.2025 0.165681V0.952663L97.1198 1.0355C96.8028 1.07692 96.534 1.13215 96.3134 1.20118C96.0929 1.27022 95.893 1.36686 95.7138 1.49112C95.5346 1.61538 95.3554 1.77416 95.1762 1.96745C95.0108 2.16075 94.8247 2.40237 94.6179 2.69231C94.2043 3.2998 93.8459 3.82446 93.5427 4.26627C93.2532 4.69428 92.9982 5.08087 92.7776 5.42603C92.5708 5.7574 92.3778 6.06805 92.1986 6.35799C92.0194 6.64793 91.8333 6.95168 91.6404 7.26923C91.5852 7.35207 91.5232 7.49704 91.4543 7.70414C91.3853 7.89743 91.3509 8.09763 91.3509 8.30473V8.61538C91.3509 9.11242 91.3509 9.51282 91.3509 9.81657C91.3509 10.1203 91.3509 10.3757 91.3509 10.5828C91.3647 10.7899 91.3716 10.9625 91.3716 11.1006C91.3853 11.2387 91.3991 11.3905 91.4129 11.5562C91.4405 11.9428 91.5025 12.212 91.599 12.3639C91.7093 12.5158 91.8196 12.64 91.9298 12.7367C92.0401 12.8333 92.1918 12.8955 92.3847 12.9231C92.5915 12.9369 92.8052 12.9438 93.0257 12.9438L93.1291 13.0266L93.1912 13.8136L93.1498 13.8964Z" fill="#433E3C"/>
<path d="M104.954 0C106.015 0 106.959 0.186391 107.786 0.559172C108.613 0.931953 109.31 1.4428 109.875 2.09172C110.44 2.72682 110.867 3.46548 111.157 4.30769C111.46 5.1499 111.612 6.03353 111.612 6.95858C111.612 7.86982 111.467 8.75345 111.177 9.60947C110.888 10.4517 110.454 11.1972 109.875 11.8462C109.31 12.4951 108.6 13.0197 107.745 13.4201C106.904 13.8067 105.925 14 104.809 14C103.734 14 102.789 13.8136 101.976 13.4408C101.163 13.068 100.48 12.571 99.929 11.9497C99.3914 11.3146 98.9848 10.5828 98.7091 9.75444C98.4334 8.91223 98.2955 8.0286 98.2955 7.10355C98.2955 6.12327 98.4472 5.20513 98.7504 4.34911C99.0537 3.47929 99.4879 2.72682 100.053 2.09172C100.618 1.4428 101.314 0.931953 102.142 0.559172C102.969 0.186391 103.906 0 104.954 0ZM104.933 12.2811C105.608 12.2811 106.208 12.143 106.732 11.8669C107.269 11.5769 107.717 11.1972 108.076 10.7278C108.434 10.2446 108.71 9.6854 108.903 9.05029C109.096 8.40138 109.192 7.71104 109.192 6.97929C109.192 6.23373 109.089 5.54339 108.882 4.90828C108.689 4.25937 108.4 3.7002 108.014 3.23077C107.642 2.76134 107.187 2.39546 106.649 2.13314C106.112 1.857 105.505 1.71893 104.83 1.71893C104.168 1.71893 103.582 1.8501 103.072 2.11243C102.562 2.37475 102.135 2.74063 101.79 3.21006C101.445 3.67949 101.183 4.23866 101.004 4.88757C100.825 5.52268 100.735 6.21302 100.735 6.95858C100.735 7.78698 100.839 8.53254 101.046 9.19526C101.252 9.84418 101.542 10.3964 101.914 10.8521C102.286 11.3077 102.727 11.6598 103.237 11.9083C103.747 12.1568 104.313 12.2811 104.933 12.2811Z" fill="#433E3C"/>
<path fill-rule="evenodd" clip-rule="evenodd" d="M128 0.186393L127.938 0.973375L127.855 1.05622C127.662 1.05622 127.456 1.07002 127.235 1.09763C127.028 1.11144 126.863 1.16667 126.739 1.26332C126.628 1.35996 126.518 1.48422 126.408 1.6361C126.311 1.78797 126.249 2.0572 126.222 2.44379C126.222 2.60947 126.215 2.77515 126.201 2.94083C126.201 3.10651 126.194 3.30671 126.18 3.54142V4.39053V5.61243V9.17456C126.18 9.85109 126.063 10.4862 125.829 11.0799C125.608 11.6598 125.277 12.1706 124.836 12.6124C124.395 13.0404 123.844 13.3787 123.182 13.6272C122.534 13.8757 121.79 14 120.949 14C119.915 14 119.047 13.8757 118.344 13.6272C117.654 13.3787 117.103 13.0404 116.69 12.6124C116.276 12.1706 115.98 11.6598 115.8 11.0799C115.621 10.4862 115.532 9.85109 115.532 9.17456V5.61243V4.39053V3.54142C115.532 3.30671 115.525 3.10651 115.511 2.94083C115.511 2.77515 115.504 2.60947 115.49 2.44379C115.463 2.07101 115.394 1.80178 115.283 1.6361C115.187 1.47042 115.084 1.34616 114.973 1.26332C114.849 1.15286 114.691 1.09073 114.498 1.07693C114.305 1.06312 114.098 1.05622 113.877 1.05622L113.774 0.973375L113.712 0.186393L113.753 0.103553C113.85 0.103553 114.008 0.110456 114.229 0.124262C114.449 0.138069 114.677 0.151876 114.911 0.165683C115.146 0.17949 115.373 0.193296 115.594 0.207103C115.814 0.220909 115.973 0.227813 116.069 0.227813H117.289L117.889 2.44379C117.875 2.63708 117.861 2.81657 117.847 2.98225C117.847 3.14793 117.841 3.34122 117.827 3.56213V4.36982V5.59172V8.59468C117.827 9.8787 118.075 10.7968 118.571 11.3491C119.081 11.8876 119.86 12.1568 120.908 12.1568C121.376 12.1568 121.811 12.0947 122.21 11.9704C122.61 11.8323 122.955 11.6183 123.244 11.3284C123.534 11.0385 123.761 10.6726 123.927 10.2308C124.092 9.77515 124.175 9.22978 124.175 8.59468V5.59172V4.36982C124.175 4.05227 124.168 3.78304 124.154 3.56213C124.154 3.34122 124.147 3.14793 124.133 2.98225C124.133 2.81657 124.126 2.63708 124.113 2.44379L124.464 0.227813H125.746C125.843 0.227813 125.994 0.220909 126.201 0.207103C126.408 0.193296 126.622 0.17949 126.842 0.165683C127.076 0.151876 127.297 0.138069 127.504 0.124262C127.711 0.110456 127.862 0.103553 127.959 0.103553L128 0.186393ZM116.965 10.3859C117.215 10.3859 117.417 10.1831 117.417 9.93285C117.417 9.68265 117.215 9.47982 116.965 9.47982C116.715 9.47982 116.513 9.68265 116.513 9.93285C116.513 10.1831 116.715 10.3859 116.965 10.3859ZM125.032 10.3859C125.282 10.3859 125.484 10.1831 125.484 9.93285C125.484 9.68265 125.282 9.47982 125.032 9.47982C124.782 9.47982 124.579 9.68265 124.579 9.93285C124.579 10.1831 124.782 10.3859 125.032 10.3859ZM116.67 7.23149C116.92 7.23149 117.122 7.02866 117.122 6.77845C117.122 6.52825 116.92 6.32542 116.67 6.32542C116.42 6.32542 116.218 6.52825 116.218 6.77845C116.218 7.02866 116.42 7.23149 116.67 7.23149ZM125.289 7.23149C125.539 7.23149 125.741 7.02866 125.741 6.77845C125.741 6.52825 125.539 6.32542 125.289 6.32542C125.039 6.32542 124.837 6.52825 124.837 6.77845C124.837 7.02866 125.039 7.23149 125.289 7.23149ZM116.513 4.07688C116.762 4.07688 116.965 3.87405 116.965 3.62385C116.965 3.37365 116.762 3.17082 116.513 3.17082C116.263 3.17082 116.06 3.37365 116.06 3.62385C116.06 3.87405 116.263 4.07688 116.513 4.07688ZM125.289 4.07688C125.539 4.07688 125.741 3.87405 125.741 3.62385C125.741 3.37365 125.539 3.17082 125.289 3.17082C125.039 3.17082 124.837 3.37365 124.837 3.62385C124.837 3.87405 125.039 4.07688 125.289 4.07688Z" fill="#433E3C"/>
</g>
<defs>
<clipPath id="clip0_23677_35">
<rect width="128" height="14" fill="white"/>
</clipPath>
</defs>
</svg>
